<svg width="28" height="25" viewBox="0 0 28 25" fill="none" xmlns="http://www.w3.org/2000/svg">
<path d="M14 3.63996V23M14 3.63996C14 3.63996 19.5103 1.05918 26.0295 1.001C26.5698 0.996177 27 1.43431 27 1.97465C27 4.78906 27 13.137 27 18.482C27 19.0463 26.5323 19.4932 25.9682 19.5064C19.4757 19.6578 14 23 14 23M14 3.63996C14 3.63996 8.48973 1.05918 1.97048 1.001C1.43017 0.996177 1 1.43431 1 1.97465C1 4.78906 1 13.137 1 18.482C1 19.0463 1.46766 19.4932 2.03181 19.5064C8.52425 19.6578 14 23 14 23M10.4921 9.10555L3.68254 7.45929M10.4921 14.3736L3.68254 12.7273M17.4392 9.10555L24.2487 7.45929M17.4392 14.3736L24.2487 12.7273" stroke-width="2" stroke-linecap="round"/>
</svg>
