<svg width="28" height="24" stroke="#ff6c00"  viewBox="0 0 28 24" fill="none" xmlns="http://www.w3.org/2000/svg">
<path d="M7.93333 5.58333V22.0833M20.0667 5.58333V22.0833M10.5333 4.20833C10.5333 4.20833 10.4903 2.44253 11.6786 1.5C12.1841 1.09905 13.0162 1 14 1C14.912 1 15.8254 1.09397 16.3214 1.5C17.6183 2.56154 17.4667 4.66667 17.4667 4.66667M5.33333 23H22.6667C25.0599 23 27 20.948 27 18.4167V9.25C27 6.71869 25.0599 4.66667 22.6667 4.66667H5.33333C2.9401 4.66667 1 6.71869 1 9.25V18.4167C1 20.948 2.9401 23 5.33333 23Z" stroke-width="2"/>
</svg>
