<svg width="18" height="18" viewBox="0 0 18 18" fill="none" xmlns="http://www.w3.org/2000/svg">
<path d="M9.00395 0C12.8879 0 15.8571 3.17643 15.8571 7.18448L15.8532 8.71377C15.8536 8.97103 16.0239 9.26848 16.4859 9.79953C16.5439 9.86623 16.5985 9.92807 16.7179 10.0628C17.6352 11.0994 18 11.6996 18 12.632C18 13.0515 17.9512 13.3774 17.7477 13.7684C17.3139 14.6017 16.387 15.0698 15 15.0698L12.7704 15.0704C12.198 16.9657 10.8963 18 9 18C7.10372 18 5.80204 16.9657 5.22955 15.0704L3 15.0698C1.57271 15.0698 0.636025 14.5891 0.221121 13.7271C0.04116 13.3532 0 13.05 0 12.632C0 11.7 0.364075 11.0999 1.27957 10.0634C1.39878 9.92864 1.4533 9.86681 1.51121 9.80011C1.97289 9.26838 2.14286 8.9708 2.14286 8.71294V7.18237C2.14286 3.1778 5.11888 0 9.00395 0ZM10.9538 15.0704H7.04623C7.43262 15.9431 8.05599 16.3256 9 16.3256C9.94401 16.3256 10.5674 15.9431 10.9538 15.0704ZM9.00395 1.67442C6.10145 1.67442 3.85714 4.07089 3.85714 7.18237V8.71294C3.85714 9.48964 3.52766 10.0665 2.81864 10.8831C2.75579 10.9555 2.69646 11.0228 2.57757 11.1571C1.9261 11.8947 1.71429 12.2439 1.71429 12.632C1.71429 12.8213 1.72797 12.9222 1.7725 13.0147C1.87872 13.2353 2.1905 13.3953 3 13.3953H15C15.7836 13.3953 16.1025 13.2343 16.2195 13.0096C16.2702 12.9123 16.2857 12.8084 16.2857 12.632C16.2857 12.2443 16.0735 11.8952 15.421 11.1577C15.3019 11.0234 15.2424 10.9561 15.1795 10.8837C14.469 10.067 14.1389 9.49005 14.1389 8.71294L14.1429 7.18237C14.1429 4.0689 11.9045 1.67442 9.00395 1.67442Z" fill="#6C639E"/>
</svg>
