<svg width="14" height="17" viewBox="0 0 14 17" fill="none" xmlns="http://www.w3.org/2000/svg">
<path d="M2.23183 0H1.85187C1.63954 0 1.3676 0.0145634 1.2484 0.0364085C0.618852 0.134711 0.127135 0.640788 0.034007 1.28158C-0.0106946 1.57648 -0.0106946 15.4199 0.0302819 15.7512C0.0973342 16.2463 0.39907 16.665 0.84981 16.8835L1.09567 17H12.9043L13.1167 16.9017C13.5786 16.6905 13.9027 16.2536 13.9697 15.7585C14.0107 15.4235 14.0107 1.58012 13.966 1.28158C13.8729 0.640788 13.3811 0.134711 12.7516 0.0364085C12.6324 0.0145634 12.3605 0 12.1519 0H11.7682L11.0231 0.000163949L8.86257 0L8.08029 0.000163949L5.91971 0L5.13743 0.000163949L2.97686 0H2.23183ZM2.23183 0.764577H2.97686H5.13743H5.91971H8.08029H8.86257H11.0231H11.7682V0.757295L12.2487 0.771858C12.7143 0.782781 12.7367 0.786422 12.8894 0.892006C12.9788 0.953901 13.0831 1.05949 13.1278 1.12866C13.2023 1.25609 13.2023 0.339508 13.2135 8.00712C13.221 14.9538 13.2172 15.7039 13.1651 15.8422C13.0906 16.0279 12.9006 16.199 12.7106 16.25C12.6138 16.2791 10.7624 16.29 6.97765 16.29H1.3825L1.18507 16.1881C1.02489 16.108 0.965289 16.0497 0.883337 15.8932L0.779033 15.6966L0.797659 1.21604L0.898237 1.06677C1.06214 0.826471 1.23722 0.764577 1.77737 0.764577H2.23183Z" fill="#6C639E"/>
<path d="M1.88246 5.54955H11.7682V4.82139H1.88246V5.54955Z" fill="#6C639E"/>
<path d="M1.88246 9.15399H11.7682V8.38941H1.88246V9.15399Z" fill="#6C639E"/>
<path d="M1.88246 12.722H11.7682V11.9938H1.88246V12.722Z" fill="#6C639E"/>
</svg>
