<svg width="23" height="20" viewBox="0 0 23 20" fill="none" xmlns="http://www.w3.org/2000/svg">
<path fill-rule="evenodd" clip-rule="evenodd" d="M11.5 1.83255C13.8322 0.412524 16.2978 -0.0839538 19.504 0.0113418L19.65 0.014871C20.317 0.0336948 20.9633 0.0501659 21.5429 0.367818C22.0317 0.636057 22.4629 1.08901 22.7102 1.59725C22.8804 1.94667 22.9448 2.29844 22.9735 2.64432C23 2.96198 23 3.33845 23 3.75728V13.2363C23 13.9069 23 14.4704 22.9655 14.9257C22.931 15.3963 22.8551 15.8586 22.6412 16.2904C22.3111 16.9598 21.8535 17.4316 21.2025 17.7775C20.7713 18.0069 20.286 18.0869 19.7995 18.1269C19.3142 18.1657 18.7013 18.174 17.9561 18.1822H17.9181C15.6009 18.2093 13.8736 18.634 12.221 19.714C12.026 19.9013 11.7675 20.0039 11.5 19.9999C11.2325 20.0036 10.9741 19.9011 10.7789 19.714C9.1264 18.634 7.3991 18.2081 5.08185 18.1822H5.0439C4.2987 18.1728 3.6869 18.1657 3.20045 18.1269C2.71285 18.0869 2.2287 18.0069 1.79745 17.7775C1.17088 17.4569 0.6652 16.9338 0.3588 16.2892C0.1449 15.8575 0.0690001 15.3951 0.0333501 14.9257C5.1409e-08 14.4704 0 13.908 0 13.2363V3.75846C0 3.34081 2.14204e-09 2.96315 0.02645 2.6455C0.0552 2.29961 0.11845 1.94784 0.29095 1.59843C0.550004 1.07801 0.95638 0.649562 1.45705 0.368994C2.03665 0.0513423 2.6841 0.0348712 3.34995 0.0160474L3.49715 0.0125182C6.70105 -0.0816009 9.16665 0.413701 11.5 1.83372V1.83255ZM10.4512 17.1304C8.8251 16.3834 7.1024 16.0881 5.106 16.0657C4.3125 16.0563 3.772 16.0492 3.36605 16.0163C2.95435 15.9822 2.80715 15.9281 2.75195 15.8987C2.5101 15.7827 2.31647 15.5826 2.2057 15.3339C2.1712 15.2657 2.1252 15.1245 2.0976 14.7657C2.07115 14.3998 2.07 13.9186 2.07 13.1963V3.79611C2.07 3.32669 2.07 3.0408 2.0884 2.82315C2.10565 2.62315 2.1321 2.56432 2.14245 2.54079C2.21065 2.41343 2.31168 2.30763 2.43455 2.23491C2.52885 2.18314 2.64385 2.15373 3.55695 2.12667C6.47795 2.04079 8.533 2.48785 10.4512 3.65728V17.1304ZM12.5488 17.1304C14.1749 16.3834 15.8976 16.0881 17.894 16.0657C18.6875 16.0563 19.228 16.0492 19.6339 16.0163C20.0457 15.9822 20.1929 15.9281 20.2481 15.8987C20.4899 15.7827 20.6835 15.5826 20.7943 15.3339C20.8288 15.2657 20.8748 15.1245 20.9024 14.7657C20.9289 14.3998 20.93 13.9186 20.93 13.1963V3.79611C20.93 3.32669 20.93 3.0408 20.9104 2.82315C20.8944 2.62315 20.8679 2.56432 20.8575 2.54079C20.7894 2.41343 20.6883 2.30763 20.5654 2.23491C20.4711 2.18314 20.3561 2.15373 19.443 2.12667C16.522 2.04079 14.467 2.48785 12.5488 3.65728V17.1304ZM3.85365 6.90674C3.86354 6.62628 3.98186 6.3613 4.18262 6.17004C4.38338 5.97878 4.65014 5.87688 4.9243 5.88673C5.90276 5.90909 6.87204 6.08527 7.79815 6.40909C7.92779 6.45207 8.04786 6.52082 8.15147 6.61139C8.25507 6.70196 8.34017 6.81258 8.40189 6.93688C8.4636 7.06119 8.50071 7.19674 8.51108 7.33575C8.52146 7.47477 8.5049 7.61451 8.46235 7.74696C8.4198 7.87941 8.3521 8.00196 8.26313 8.10757C8.17417 8.21318 8.06569 8.29979 7.94393 8.3624C7.82217 8.42502 7.68952 8.46242 7.55359 8.47246C7.41766 8.48249 7.28114 8.46496 7.15185 8.42089C6.41093 8.15902 5.63444 8.01769 4.8507 8.00205C4.57655 7.99194 4.31754 7.87089 4.13059 7.66551C3.94363 7.46013 3.84402 7.18722 3.85365 6.90674ZM19.1463 6.90674C19.1557 7.18702 19.0559 7.45962 18.869 7.66475C18.6821 7.86987 18.4232 7.99076 18.1493 8.00088C17.3655 8.01683 16.589 8.15856 15.8482 8.42089C15.5877 8.50722 15.3045 8.48449 15.0604 8.35767C14.8163 8.23085 14.6313 8.01027 14.5458 7.74421C14.4604 7.47815 14.4814 7.18829 14.6043 6.93806C14.7273 6.68784 14.9421 6.49764 15.2018 6.40909C16.128 6.08527 17.0972 5.90909 18.0757 5.88673C18.3499 5.87688 18.6166 5.97878 18.8174 6.17004C19.0181 6.3613 19.1365 6.62628 19.1463 6.90674ZM3.85365 11.6103C3.86354 11.3299 3.98186 11.0649 4.18262 10.8736C4.38338 10.6824 4.65014 10.5805 4.9243 10.5903C5.90276 10.6127 6.87204 10.7889 7.79815 11.1127C7.92779 11.1557 8.04786 11.2244 8.15147 11.315C8.25507 11.4056 8.34017 11.5162 8.40189 11.6405C8.4636 11.7648 8.50071 11.9003 8.51108 12.0394C8.52146 12.1784 8.5049 12.3181 8.46235 12.4506C8.4198 12.583 8.3521 12.7056 8.26313 12.8112C8.17417 12.9168 8.06569 13.0034 7.94393 13.066C7.82217 13.1286 7.68952 13.166 7.55359 13.1761C7.41766 13.1861 7.28114 13.1686 7.15185 13.1245C6.4109 12.8629 5.63439 12.722 4.8507 12.7068C4.71485 12.7018 4.5813 12.6695 4.45767 12.6117C4.33404 12.5539 4.22275 12.4717 4.13017 12.3699C4.03758 12.2681 3.96551 12.1486 3.91806 12.0182C3.87062 11.8879 3.84873 11.7493 3.85365 11.6103ZM19.1463 11.6103C19.156 11.8908 19.0564 12.1637 18.8694 12.3691C18.6825 12.5745 18.4234 12.6955 18.1493 12.7057C17.3655 12.7212 16.589 12.8625 15.8482 13.1245C15.5877 13.2108 15.3045 13.1881 15.0604 13.0613C14.8163 12.9345 14.6313 12.7139 14.5458 12.4478C14.4604 12.1818 14.4814 11.8919 14.6043 11.6417C14.7273 11.3914 14.9421 11.2012 15.2018 11.1127C16.128 10.7889 17.0972 10.6127 18.0757 10.5903C18.3499 10.5805 18.6166 10.6824 18.8174 10.8736C19.0181 11.0649 19.1365 11.3299 19.1463 11.6103Z" fill="#787FB2"/>
</svg>
