<svg width="24" height="19" viewBox="0 0 24 19" fill="none" xmlns="http://www.w3.org/2000/svg">
<path d="M8.10997 0.14325C7.8096 0.319924 7.77205 0.372449 7.28395 1.36565C6.71607 2.52597 6.54241 2.66922 5.76333 2.67399H5.32686V2.25379C5.32686 1.78107 5.25177 1.59485 4.98894 1.4325C4.84815 1.34655 4.74959 1.337 3.98928 1.337C3.2759 1.337 3.12102 1.35132 2.98022 1.42295C2.73148 1.5471 2.63762 1.76197 2.61415 2.24902L2.59538 2.66444L1.78813 2.68354C1.10761 2.69787 0.952733 2.71697 0.774389 2.79814C0.4881 2.93184 0.281596 3.11807 0.126718 3.38546L0 3.60511V10.8392C0 17.9348 0 18.0781 0.0938653 18.2643C0.211197 18.5031 0.469327 18.7657 0.70399 18.8851C0.887027 18.9806 1.06068 18.9806 11.9209 18.9949C24.2689 19.0044 23.2082 19.0379 23.5977 18.6559C23.7057 18.546 23.8371 18.3694 23.8887 18.2643C23.9826 18.0781 23.9826 17.9348 23.9967 10.9586C24.0061 5.54853 23.9967 3.79611 23.9544 3.63376C23.87 3.32339 23.5884 2.99392 23.2692 2.83634L22.997 2.69787L17.6936 2.65012L17.473 2.51642C17.1961 2.34929 17.1492 2.28722 16.6846 1.337C16.2105 0.377224 16.173 0.319924 15.8726 0.14325L15.6286 0H8.35402L8.10997 0.14325ZM15.3282 2.46867C15.5957 3.06554 15.8632 3.60989 15.9243 3.68629C15.9853 3.76269 16.1355 3.88206 16.2575 3.95369L16.4734 4.08261L22.645 4.11126V17.6197H1.33758V4.11126L4.42575 4.09694C7.50923 4.08261 7.50923 4.08261 7.70165 3.97756C8.0161 3.80566 8.18506 3.54781 8.70601 2.43524L9.1988 1.38952L12.0195 1.38475H14.8401L15.3282 2.46867Z" fill="#686868"/>
<path d="M11.3108 5.44826C10.1328 5.60106 9.03454 6.15496 8.18975 7.01923C7.528 7.6925 7.0399 8.55678 6.79585 9.4879C6.68321 9.91765 6.66913 10.0322 6.66913 10.8631C6.66913 11.7035 6.67852 11.8038 6.80054 12.2478C7.3215 14.1817 8.7811 15.6524 10.6584 16.1395C13.5119 16.8843 16.3983 15.1606 17.1821 12.2478C17.3041 11.8038 17.3135 11.7035 17.3135 10.8631C17.3135 10.0322 17.2994 9.91765 17.1867 9.4879C16.9427 8.55678 16.4546 7.6925 15.7928 7.01923C14.6148 5.81593 12.9628 5.23816 11.3108 5.44826ZM12.7892 6.89985C14.3989 7.24365 15.6286 8.552 15.9149 10.228C16.2246 12.0282 15.1968 13.8809 13.4838 14.6019C11.4093 15.4805 8.96883 14.3488 8.23668 12.1667C7.4623 9.87467 8.83273 7.42988 11.1934 6.89508C11.5595 6.81391 12.3949 6.8139 12.7892 6.89985Z" fill="#686868"/>
<path d="M19.4536 6.88075C19.1955 7.00012 18.9186 7.26275 18.7825 7.5206C18.6323 7.79755 18.637 8.48515 18.7825 8.76687C19.1908 9.54997 20.2468 9.75529 20.8991 9.18707C21.1901 8.93877 21.345 8.56632 21.345 8.14612C21.345 7.57312 21.1056 7.1768 20.6175 6.9285C20.2561 6.74228 19.7915 6.72318 19.4536 6.88075Z" fill="#686868"/>
</svg>
