<svg width="323" height="192" viewBox="0 0 323 192" fill="none" xmlns="http://www.w3.org/2000/svg">
<g opacity="0.8" filter="url(#filter0_d_417_4862)">
<rect x="4" y="2" width="315" height="184" rx="10" fill="#9DA4D8"/>
</g>
<path d="M284.784 32H265.216C262.891 32 261 33.6537 261 35.6852V48.3148C261 50.3463 262.891 52 265.216 52H284.784C287.109 52 289 50.3463 289 48.3148V35.6852C289 33.6537 287.109 32 284.784 32ZM262.769 35.7372H271.309C271.866 35.7372 272.06 36.0639 271.795 36.493C271.445 37.0581 271.07 37.8006 270.789 38.7037C270.643 39.1743 270.112 39.5637 269.554 39.5637H262.769C262.211 39.5637 261.759 39.1681 261.759 38.6808V36.6202C261.759 36.1319 262.211 35.7372 262.769 35.7372ZM262.769 40.2258H269.442C269.999 40.2258 270.395 40.5842 270.362 41.0293C270.343 41.2897 270.333 41.5573 270.338 41.8362C270.345 42.2556 270.386 42.6565 270.455 43.0404C270.542 43.5226 270.209 43.9048 269.651 43.9048H262.769C262.211 43.9048 261.759 43.5093 261.759 43.022V41.1078C261.759 40.6205 262.211 40.2258 262.769 40.2258ZM262.769 44.5679H269.879C270.437 44.5679 271.033 44.943 271.264 45.3863C271.695 46.211 272.215 46.8899 272.687 47.4098C273.033 47.7922 272.897 48.0765 272.339 48.0765H262.769C262.211 48.0765 261.759 47.6809 261.759 47.1936V45.4499C261.759 44.9625 262.211 44.5679 262.769 44.5679ZM268.879 51.3378H265.217C263.829 51.3378 262.639 50.6173 262.092 49.5826C261.859 49.1402 262.26 48.7395 262.817 48.7395H268.879C269.437 48.7395 269.889 49.135 269.889 49.6223V50.4549C269.889 50.9423 269.438 51.3378 268.879 51.3378ZM279.239 51.3378H271.657C271.099 51.3378 270.647 50.9423 270.647 50.455V49.6215C270.647 49.1342 271.099 48.7387 271.657 48.7387H279.239C279.797 48.7387 280.249 49.1342 280.249 49.6215V50.4542C280.249 50.9423 279.797 51.3378 279.239 51.3378ZM282.017 51.3378C281.46 51.3378 281.007 50.9423 281.007 50.455V49.6215C281.007 49.1342 281.46 48.7387 282.017 48.7387H287.183C287.74 48.7387 288.142 49.1396 287.909 49.5819C287.362 50.6167 286.172 51.3371 284.784 51.3371H282.017L282.017 51.3378ZM287.232 48.0765H277.662C277.104 48.0765 276.968 47.7922 277.313 47.409C277.817 46.8528 278.373 46.1156 278.82 45.215C279.041 44.7674 279.628 44.3896 280.187 44.3896H287.232C287.79 44.3896 288.242 44.7852 288.242 45.2725V47.1936C288.242 47.6809 287.791 48.0765 287.232 48.0765ZM287.232 43.7274H280.398C279.84 43.7274 279.499 43.3433 279.574 42.8603C279.626 42.5318 279.658 42.1911 279.663 41.8361C279.668 41.5218 279.656 41.2198 279.632 40.9276C279.592 40.4411 279.975 40.0491 280.533 40.0491H287.231C287.789 40.0491 288.241 40.4446 288.241 40.932V42.8443C288.242 43.3327 287.791 43.7274 287.232 43.7274ZM287.232 39.3871H280.404C279.846 39.3871 279.307 38.9995 279.151 38.5308C278.877 37.7053 278.53 37.0211 278.203 36.4914C277.939 36.0623 278.134 35.7365 278.691 35.7365H287.231C287.789 35.7365 288.241 36.132 288.241 36.6193V38.5042C288.242 38.9924 287.791 39.3871 287.232 39.3871ZM276.354 35.3506L276.638 35.6261C276.661 35.6481 278.967 37.9383 278.906 41.8265C278.864 44.4735 277.306 46.4299 276.315 47.409C275.946 47.7745 275.336 48.0394 275 48.0394C274.665 48.0394 274.054 47.7745 273.685 47.409C272.694 46.429 271.136 44.4725 271.094 41.8266C271.034 37.9383 273.339 35.6481 273.362 35.6261C273.362 35.6261 273.49 35.5024 273.646 35.3506C273.804 35.1979 273.479 35.0752 272.92 35.0752H262.839C262.281 35.0752 261.907 34.6779 262.174 34.2488C262.76 33.3041 263.903 32.6623 265.216 32.6623H284.784C286.097 32.6623 287.24 33.3041 287.826 34.2488C288.092 34.6779 287.719 35.0752 287.16 35.0752H277.079C276.522 35.0752 276.197 35.1987 276.354 35.3506Z" fill="#F1F1F1"/>
<path d="M48.8011 22C45.5214 22 43.7983 23.5711 43.7983 25.569C43.7983 29.1767 48.1625 28.6789 48.1625 30.5345C48.1625 30.8513 47.8897 31.569 46.0868 31.569C44.284 31.569 43.1064 30.9483 43.1064 30.9483L42.5742 33.3276C42.5742 33.3276 43.6919 34 45.9272 34C48.1625 34 51.3025 32.3319 51.3025 29.9138C51.3025 27.0043 46.9384 26.8103 46.9384 25.5172C46.9384 24.8578 47.5172 24.3276 49.0672 24.3276C50.0784 24.3276 51.1961 25.1034 51.1961 25.1034L51.7283 22.569C51.7283 22.569 50.2447 22 48.8011 22ZM34.8039 22.2069L31.93 30.3793C31.93 30.3793 31.7836 29.6746 31.7171 29.2414C30.0938 25.6983 27.4594 24.3793 27.4594 24.3793L29.9608 33.6379H33.3669L38.1569 22.2069H34.8039ZM39.381 22.2069L37.5182 33.6379H40.6583L42.521 22.2069H39.381ZM56.3053 22.2069L51.1961 33.6379H54.2829L54.9216 32.0345H58.8599L59.1793 33.6379H62L59.605 22.2069H56.3053ZM24 22.2586C24 22.2586 30.1271 24.0819 31.5574 28.569L30.493 23.3966C30.493 23.3966 30.0273 22.2586 28.7899 22.2586H24ZM57.4762 25.5172L58.381 29.8103H55.8263L57.4762 25.5172Z" fill="#F1F1F1"/>
<path d="M32.8438 114.352H31.1328V117H29.8672V114.352H24.3438V113.258L29.7812 105.516H31.1328V113.18H32.8438V114.352ZM29.8672 113.18V109.445C29.8672 109.159 29.8698 108.901 29.875 108.672C29.8802 108.438 29.888 108.221 29.8984 108.023C29.9089 107.82 29.9167 107.628 29.9219 107.445C29.9323 107.263 29.9401 107.083 29.9453 106.906H29.8828C29.7839 107.115 29.6693 107.336 29.5391 107.57C29.4141 107.799 29.2865 108.005 29.1562 108.188L25.6328 113.18H29.8672ZM37.5547 110.016C38.3307 110.016 39.0052 110.148 39.5781 110.414C40.151 110.674 40.5938 111.055 40.9062 111.555C41.224 112.055 41.3828 112.661 41.3828 113.375C41.3828 114.156 41.2135 114.831 40.875 115.398C40.5365 115.961 40.0495 116.396 39.4141 116.703C38.7786 117.005 38.0182 117.156 37.1328 117.156C36.5391 117.156 35.987 117.104 35.4766 117C34.9661 116.896 34.5365 116.74 34.1875 116.531V115.297C34.5677 115.526 35.0286 115.708 35.5703 115.844C36.112 115.979 36.638 116.047 37.1484 116.047C37.7266 116.047 38.2318 115.956 38.6641 115.773C39.1016 115.586 39.4401 115.305 39.6797 114.93C39.9245 114.549 40.0469 114.073 40.0469 113.5C40.0469 112.74 39.8125 112.154 39.3438 111.742C38.8802 111.326 38.1458 111.117 37.1406 111.117C36.8177 111.117 36.4635 111.143 36.0781 111.195C35.6927 111.247 35.375 111.305 35.125 111.367L34.4688 110.938L34.9062 105.578H40.5859V106.766H36.0156L35.7266 110.211C35.9245 110.169 36.1797 110.128 36.4922 110.086C36.8047 110.039 37.1589 110.016 37.5547 110.016ZM50.6484 111.273C50.6484 112.201 50.5781 113.029 50.4375 113.758C50.2969 114.487 50.0755 115.104 49.7734 115.609C49.4714 116.115 49.0807 116.5 48.6016 116.766C48.1224 117.026 47.5469 117.156 46.875 117.156C46.026 117.156 45.3229 116.924 44.7656 116.461C44.2135 115.997 43.7995 115.328 43.5234 114.453C43.2526 113.573 43.1172 112.513 43.1172 111.273C43.1172 110.055 43.2396 109.008 43.4844 108.133C43.7344 107.253 44.1354 106.578 44.6875 106.109C45.2396 105.635 45.9688 105.398 46.875 105.398C47.7344 105.398 48.4427 105.633 49 106.102C49.5573 106.565 49.9714 107.237 50.2422 108.117C50.513 108.992 50.6484 110.044 50.6484 111.273ZM44.4219 111.273C44.4219 112.336 44.5026 113.221 44.6641 113.93C44.8255 114.638 45.0859 115.169 45.4453 115.523C45.8099 115.872 46.2865 116.047 46.875 116.047C47.4635 116.047 47.9375 115.872 48.2969 115.523C48.6615 115.174 48.9245 114.646 49.0859 113.938C49.2526 113.229 49.3359 112.341 49.3359 111.273C49.3359 110.227 49.2552 109.352 49.0938 108.648C48.9323 107.94 48.6719 107.409 48.3125 107.055C47.9531 106.695 47.474 106.516 46.875 106.516C46.276 106.516 45.7969 106.695 45.4375 107.055C45.0781 107.409 44.8177 107.94 44.6562 108.648C44.5 109.352 44.4219 110.227 44.4219 111.273ZM59.8047 111.273C59.8047 112.201 59.7344 113.029 59.5938 113.758C59.4531 114.487 59.2318 115.104 58.9297 115.609C58.6276 116.115 58.237 116.5 57.7578 116.766C57.2786 117.026 56.7031 117.156 56.0312 117.156C55.1823 117.156 54.4792 116.924 53.9219 116.461C53.3698 115.997 52.9557 115.328 52.6797 114.453C52.4089 113.573 52.2734 112.513 52.2734 111.273C52.2734 110.055 52.3958 109.008 52.6406 108.133C52.8906 107.253 53.2917 106.578 53.8438 106.109C54.3958 105.635 55.125 105.398 56.0312 105.398C56.8906 105.398 57.599 105.633 58.1562 106.102C58.7135 106.565 59.1276 107.237 59.3984 108.117C59.6693 108.992 59.8047 110.044 59.8047 111.273ZM53.5781 111.273C53.5781 112.336 53.6589 113.221 53.8203 113.93C53.9818 114.638 54.2422 115.169 54.6016 115.523C54.9661 115.872 55.4427 116.047 56.0312 116.047C56.6198 116.047 57.0938 115.872 57.4531 115.523C57.8177 115.174 58.0807 114.646 58.2422 113.938C58.4089 113.229 58.4922 112.341 58.4922 111.273C58.4922 110.227 58.4115 109.352 58.25 108.648C58.0885 107.94 57.8281 107.409 57.4688 107.055C57.1094 106.695 56.6302 106.516 56.0312 106.516C55.4323 106.516 54.9531 106.695 54.5938 107.055C54.2344 107.409 53.974 107.94 53.8125 108.648C53.6562 109.352 53.5781 110.227 53.5781 111.273ZM65.6875 112.117C65.6875 111.43 65.7344 110.758 65.8281 110.102C65.9271 109.445 66.0911 108.836 66.3203 108.273C66.5495 107.706 66.862 107.208 67.2578 106.781C67.6536 106.354 68.1458 106.021 68.7344 105.781C69.3281 105.536 70.0391 105.414 70.8672 105.414C71.1016 105.414 71.3542 105.427 71.625 105.453C71.8958 105.474 72.1198 105.51 72.2969 105.562V106.68C72.1042 106.612 71.8828 106.562 71.6328 106.531C71.388 106.5 71.1406 106.484 70.8906 106.484C69.9219 106.484 69.1589 106.695 68.6016 107.117C68.0495 107.539 67.651 108.112 67.4062 108.836C67.1615 109.555 67.0208 110.365 66.9844 111.266H67.0703C67.2318 111.005 67.4375 110.771 67.6875 110.562C67.9375 110.349 68.2396 110.18 68.5938 110.055C68.9531 109.93 69.3698 109.867 69.8438 109.867C70.5104 109.867 71.0911 110.003 71.5859 110.273C72.0859 110.544 72.4714 110.938 72.7422 111.453C73.0182 111.969 73.1562 112.594 73.1562 113.328C73.1562 114.115 73.0104 114.794 72.7188 115.367C72.4271 115.94 72.0104 116.383 71.4688 116.695C70.9323 117.003 70.2917 117.156 69.5469 117.156C68.9896 117.156 68.4766 117.049 68.0078 116.836C67.5391 116.622 67.1302 116.305 66.7812 115.883C66.4375 115.461 66.1693 114.938 65.9766 114.312C65.7839 113.682 65.6875 112.951 65.6875 112.117ZM69.5312 116.062C70.2396 116.062 70.8073 115.836 71.2344 115.383C71.6615 114.93 71.875 114.245 71.875 113.328C71.875 112.578 71.6849 111.984 71.3047 111.547C70.9245 111.109 70.3516 110.891 69.5859 110.891C69.0651 110.891 68.612 111 68.2266 111.219C67.8411 111.432 67.5417 111.703 67.3281 112.031C67.1146 112.359 67.0078 112.693 67.0078 113.031C67.0078 113.375 67.0573 113.724 67.1562 114.078C67.2604 114.432 67.4167 114.76 67.625 115.062C67.8333 115.365 68.0964 115.607 68.4141 115.789C68.7318 115.971 69.1042 116.062 69.5312 116.062ZM81.7891 108.242C81.7891 108.753 81.6901 109.195 81.4922 109.57C81.2943 109.945 81.0182 110.253 80.6641 110.492C80.3099 110.727 79.8932 110.891 79.4141 110.984V111.047C80.3203 111.161 81 111.453 81.4531 111.922C81.9115 112.391 82.1406 113.005 82.1406 113.766C82.1406 114.427 81.9844 115.013 81.6719 115.523C81.3646 116.034 80.8906 116.435 80.25 116.727C79.6146 117.013 78.7995 117.156 77.8047 117.156C77.2005 117.156 76.6406 117.107 76.125 117.008C75.6146 116.914 75.125 116.755 74.6562 116.531V115.312C75.1302 115.547 75.6458 115.732 76.2031 115.867C76.7604 115.997 77.2995 116.062 77.8203 116.062C78.862 116.062 79.6146 115.857 80.0781 115.445C80.5417 115.029 80.7734 114.461 80.7734 113.742C80.7734 113.247 80.6432 112.849 80.3828 112.547C80.1276 112.24 79.7578 112.016 79.2734 111.875C78.7943 111.729 78.2161 111.656 77.5391 111.656H76.3984V110.547H77.5469C78.1667 110.547 78.6927 110.456 79.125 110.273C79.5573 110.091 79.8854 109.836 80.1094 109.508C80.3385 109.174 80.4531 108.781 80.4531 108.328C80.4531 107.75 80.2604 107.305 79.875 106.992C79.4896 106.674 78.9661 106.516 78.3047 106.516C77.8984 106.516 77.5286 106.557 77.1953 106.641C76.862 106.724 76.5495 106.839 76.2578 106.984C75.9661 107.13 75.6745 107.299 75.3828 107.492L74.7266 106.602C75.1432 106.279 75.651 106 76.25 105.766C76.849 105.531 77.5286 105.414 78.2891 105.414C79.4557 105.414 80.3307 105.68 80.9141 106.211C81.4974 106.742 81.7891 107.419 81.7891 108.242ZM91.4297 111.273C91.4297 112.201 91.3594 113.029 91.2188 113.758C91.0781 114.487 90.8568 115.104 90.5547 115.609C90.2526 116.115 89.862 116.5 89.3828 116.766C88.9036 117.026 88.3281 117.156 87.6562 117.156C86.8073 117.156 86.1042 116.924 85.5469 116.461C84.9948 115.997 84.5807 115.328 84.3047 114.453C84.0339 113.573 83.8984 112.513 83.8984 111.273C83.8984 110.055 84.0208 109.008 84.2656 108.133C84.5156 107.253 84.9167 106.578 85.4688 106.109C86.0208 105.635 86.75 105.398 87.6562 105.398C88.5156 105.398 89.224 105.633 89.7812 106.102C90.3385 106.565 90.7526 107.237 91.0234 108.117C91.2943 108.992 91.4297 110.044 91.4297 111.273ZM85.2031 111.273C85.2031 112.336 85.2839 113.221 85.4453 113.93C85.6068 114.638 85.8672 115.169 86.2266 115.523C86.5911 115.872 87.0677 116.047 87.6562 116.047C88.2448 116.047 88.7188 115.872 89.0781 115.523C89.4427 115.174 89.7057 114.646 89.8672 113.938C90.0339 113.229 90.1172 112.341 90.1172 111.273C90.1172 110.227 90.0365 109.352 89.875 108.648C89.7135 107.94 89.4531 107.409 89.0938 107.055C88.7344 106.695 88.2552 106.516 87.6562 106.516C87.0573 106.516 86.5781 106.695 86.2188 107.055C85.8594 107.409 85.599 107.94 85.4375 108.648C85.2812 109.352 85.2031 110.227 85.2031 111.273ZM100.586 111.273C100.586 112.201 100.516 113.029 100.375 113.758C100.234 114.487 100.013 115.104 99.7109 115.609C99.4089 116.115 99.0182 116.5 98.5391 116.766C98.0599 117.026 97.4844 117.156 96.8125 117.156C95.9635 117.156 95.2604 116.924 94.7031 116.461C94.151 115.997 93.737 115.328 93.4609 114.453C93.1901 113.573 93.0547 112.513 93.0547 111.273C93.0547 110.055 93.1771 109.008 93.4219 108.133C93.6719 107.253 94.0729 106.578 94.625 106.109C95.1771 105.635 95.9062 105.398 96.8125 105.398C97.6719 105.398 98.3802 105.633 98.9375 106.102C99.4948 106.565 99.9089 107.237 100.18 108.117C100.451 108.992 100.586 110.044 100.586 111.273ZM94.3594 111.273C94.3594 112.336 94.4401 113.221 94.6016 113.93C94.763 114.638 95.0234 115.169 95.3828 115.523C95.7474 115.872 96.224 116.047 96.8125 116.047C97.401 116.047 97.875 115.872 98.2344 115.523C98.599 115.174 98.862 114.646 99.0234 113.938C99.1901 113.229 99.2734 112.341 99.2734 111.273C99.2734 110.227 99.1927 109.352 99.0312 108.648C98.8698 107.94 98.6094 107.409 98.25 107.055C97.8906 106.695 97.4115 106.516 96.8125 106.516C96.2135 106.516 95.7344 106.695 95.375 107.055C95.0156 107.409 94.7552 107.94 94.5938 108.648C94.4375 109.352 94.3594 110.227 94.3594 111.273ZM113.852 110.445C113.852 111.138 113.802 111.812 113.703 112.469C113.609 113.125 113.445 113.737 113.211 114.305C112.982 114.872 112.669 115.37 112.273 115.797C111.878 116.224 111.38 116.56 110.781 116.805C110.188 117.044 109.477 117.164 108.648 117.164C108.424 117.164 108.169 117.148 107.883 117.117C107.596 117.091 107.362 117.052 107.18 117V115.875C107.372 115.943 107.599 115.997 107.859 116.039C108.12 116.076 108.375 116.094 108.625 116.094C109.599 116.094 110.365 115.885 110.922 115.469C111.479 115.047 111.88 114.477 112.125 113.758C112.37 113.034 112.508 112.221 112.539 111.32H112.445C112.289 111.57 112.083 111.802 111.828 112.016C111.578 112.224 111.273 112.393 110.914 112.523C110.555 112.648 110.135 112.711 109.656 112.711C108.995 112.711 108.417 112.576 107.922 112.305C107.432 112.034 107.049 111.641 106.773 111.125C106.503 110.609 106.367 109.987 106.367 109.258C106.367 108.471 106.516 107.792 106.812 107.219C107.115 106.641 107.536 106.195 108.078 105.883C108.62 105.57 109.258 105.414 109.992 105.414C110.555 105.414 111.07 105.521 111.539 105.734C112.008 105.948 112.414 106.268 112.758 106.695C113.107 107.117 113.375 107.641 113.562 108.266C113.755 108.891 113.852 109.617 113.852 110.445ZM109.992 106.516C109.299 106.516 108.737 106.742 108.305 107.195C107.878 107.648 107.664 108.331 107.664 109.242C107.664 109.997 107.849 110.594 108.219 111.031C108.589 111.469 109.159 111.688 109.93 111.688C110.461 111.688 110.919 111.581 111.305 111.367C111.695 111.154 111.995 110.883 112.203 110.555C112.417 110.227 112.523 109.891 112.523 109.547C112.523 109.203 112.471 108.854 112.367 108.5C112.268 108.146 112.115 107.82 111.906 107.523C111.698 107.221 111.435 106.979 111.117 106.797C110.799 106.609 110.424 106.516 109.992 106.516ZM123.562 114.352H121.852V117H120.586V114.352H115.062V113.258L120.5 105.516H121.852V113.18H123.562V114.352ZM120.586 113.18V109.445C120.586 109.159 120.589 108.901 120.594 108.672C120.599 108.438 120.607 108.221 120.617 108.023C120.628 107.82 120.635 107.628 120.641 107.445C120.651 107.263 120.659 107.083 120.664 106.906H120.602C120.503 107.115 120.388 107.336 120.258 107.57C120.133 107.799 120.005 108.005 119.875 108.188L116.352 113.18H120.586ZM132.211 111.273C132.211 112.201 132.141 113.029 132 113.758C131.859 114.487 131.638 115.104 131.336 115.609C131.034 116.115 130.643 116.5 130.164 116.766C129.685 117.026 129.109 117.156 128.438 117.156C127.589 117.156 126.885 116.924 126.328 116.461C125.776 115.997 125.362 115.328 125.086 114.453C124.815 113.573 124.68 112.513 124.68 111.273C124.68 110.055 124.802 109.008 125.047 108.133C125.297 107.253 125.698 106.578 126.25 106.109C126.802 105.635 127.531 105.398 128.438 105.398C129.297 105.398 130.005 105.633 130.562 106.102C131.12 106.565 131.534 107.237 131.805 108.117C132.076 108.992 132.211 110.044 132.211 111.273ZM125.984 111.273C125.984 112.336 126.065 113.221 126.227 113.93C126.388 114.638 126.648 115.169 127.008 115.523C127.372 115.872 127.849 116.047 128.438 116.047C129.026 116.047 129.5 115.872 129.859 115.523C130.224 115.174 130.487 114.646 130.648 113.938C130.815 113.229 130.898 112.341 130.898 111.273C130.898 110.227 130.818 109.352 130.656 108.648C130.495 107.94 130.234 107.409 129.875 107.055C129.516 106.695 129.036 106.516 128.438 106.516C127.839 106.516 127.359 106.695 127 107.055C126.641 107.409 126.38 107.94 126.219 108.648C126.062 109.352 125.984 110.227 125.984 111.273ZM141.367 111.273C141.367 112.201 141.297 113.029 141.156 113.758C141.016 114.487 140.794 115.104 140.492 115.609C140.19 116.115 139.799 116.5 139.32 116.766C138.841 117.026 138.266 117.156 137.594 117.156C136.745 117.156 136.042 116.924 135.484 116.461C134.932 115.997 134.518 115.328 134.242 114.453C133.971 113.573 133.836 112.513 133.836 111.273C133.836 110.055 133.958 109.008 134.203 108.133C134.453 107.253 134.854 106.578 135.406 106.109C135.958 105.635 136.688 105.398 137.594 105.398C138.453 105.398 139.161 105.633 139.719 106.102C140.276 106.565 140.69 107.237 140.961 108.117C141.232 108.992 141.367 110.044 141.367 111.273ZM135.141 111.273C135.141 112.336 135.221 113.221 135.383 113.93C135.544 114.638 135.805 115.169 136.164 115.523C136.529 115.872 137.005 116.047 137.594 116.047C138.182 116.047 138.656 115.872 139.016 115.523C139.38 115.174 139.643 114.646 139.805 113.938C139.971 113.229 140.055 112.341 140.055 111.273C140.055 110.227 139.974 109.352 139.812 108.648C139.651 107.94 139.391 107.409 139.031 107.055C138.672 106.695 138.193 106.516 137.594 106.516C136.995 106.516 136.516 106.695 136.156 107.055C135.797 107.409 135.536 107.94 135.375 108.648C135.219 109.352 135.141 110.227 135.141 111.273ZM154.633 110.445C154.633 111.138 154.583 111.812 154.484 112.469C154.391 113.125 154.227 113.737 153.992 114.305C153.763 114.872 153.451 115.37 153.055 115.797C152.659 116.224 152.161 116.56 151.562 116.805C150.969 117.044 150.258 117.164 149.43 117.164C149.206 117.164 148.951 117.148 148.664 117.117C148.378 117.091 148.143 117.052 147.961 117V115.875C148.154 115.943 148.38 115.997 148.641 116.039C148.901 116.076 149.156 116.094 149.406 116.094C150.38 116.094 151.146 115.885 151.703 115.469C152.26 115.047 152.661 114.477 152.906 113.758C153.151 113.034 153.289 112.221 153.32 111.32H153.227C153.07 111.57 152.865 111.802 152.609 112.016C152.359 112.224 152.055 112.393 151.695 112.523C151.336 112.648 150.917 112.711 150.438 112.711C149.776 112.711 149.198 112.576 148.703 112.305C148.214 112.034 147.831 111.641 147.555 111.125C147.284 110.609 147.148 109.987 147.148 109.258C147.148 108.471 147.297 107.792 147.594 107.219C147.896 106.641 148.318 106.195 148.859 105.883C149.401 105.57 150.039 105.414 150.773 105.414C151.336 105.414 151.852 105.521 152.32 105.734C152.789 105.948 153.195 106.268 153.539 106.695C153.888 107.117 154.156 107.641 154.344 108.266C154.536 108.891 154.633 109.617 154.633 110.445ZM150.773 106.516C150.081 106.516 149.518 106.742 149.086 107.195C148.659 107.648 148.445 108.331 148.445 109.242C148.445 109.997 148.63 110.594 149 111.031C149.37 111.469 149.94 111.688 150.711 111.688C151.242 111.688 151.701 111.581 152.086 111.367C152.477 111.154 152.776 110.883 152.984 110.555C153.198 110.227 153.305 109.891 153.305 109.547C153.305 109.203 153.253 108.854 153.148 108.5C153.049 108.146 152.896 107.82 152.688 107.523C152.479 107.221 152.216 106.979 151.898 106.797C151.581 106.609 151.206 106.516 150.773 106.516ZM163.789 110.445C163.789 111.138 163.74 111.812 163.641 112.469C163.547 113.125 163.383 113.737 163.148 114.305C162.919 114.872 162.607 115.37 162.211 115.797C161.815 116.224 161.318 116.56 160.719 116.805C160.125 117.044 159.414 117.164 158.586 117.164C158.362 117.164 158.107 117.148 157.82 117.117C157.534 117.091 157.299 117.052 157.117 117V115.875C157.31 115.943 157.536 115.997 157.797 116.039C158.057 116.076 158.312 116.094 158.562 116.094C159.536 116.094 160.302 115.885 160.859 115.469C161.417 115.047 161.818 114.477 162.062 113.758C162.307 113.034 162.445 112.221 162.477 111.32H162.383C162.227 111.57 162.021 111.802 161.766 112.016C161.516 112.224 161.211 112.393 160.852 112.523C160.492 112.648 160.073 112.711 159.594 112.711C158.932 112.711 158.354 112.576 157.859 112.305C157.37 112.034 156.987 111.641 156.711 111.125C156.44 110.609 156.305 109.987 156.305 109.258C156.305 108.471 156.453 107.792 156.75 107.219C157.052 106.641 157.474 106.195 158.016 105.883C158.557 105.57 159.195 105.414 159.93 105.414C160.492 105.414 161.008 105.521 161.477 105.734C161.945 105.948 162.352 106.268 162.695 106.695C163.044 107.117 163.312 107.641 163.5 108.266C163.693 108.891 163.789 109.617 163.789 110.445ZM159.93 106.516C159.237 106.516 158.674 106.742 158.242 107.195C157.815 107.648 157.602 108.331 157.602 109.242C157.602 109.997 157.786 110.594 158.156 111.031C158.526 111.469 159.096 111.688 159.867 111.688C160.398 111.688 160.857 111.581 161.242 111.367C161.633 111.154 161.932 110.883 162.141 110.555C162.354 110.227 162.461 109.891 162.461 109.547C162.461 109.203 162.409 108.854 162.305 108.5C162.206 108.146 162.052 107.82 161.844 107.523C161.635 107.221 161.372 106.979 161.055 106.797C160.737 106.609 160.362 106.516 159.93 106.516ZM172.992 111.273C172.992 112.201 172.922 113.029 172.781 113.758C172.641 114.487 172.419 115.104 172.117 115.609C171.815 116.115 171.424 116.5 170.945 116.766C170.466 117.026 169.891 117.156 169.219 117.156C168.37 117.156 167.667 116.924 167.109 116.461C166.557 115.997 166.143 115.328 165.867 114.453C165.596 113.573 165.461 112.513 165.461 111.273C165.461 110.055 165.583 109.008 165.828 108.133C166.078 107.253 166.479 106.578 167.031 106.109C167.583 105.635 168.312 105.398 169.219 105.398C170.078 105.398 170.786 105.633 171.344 106.102C171.901 106.565 172.315 107.237 172.586 108.117C172.857 108.992 172.992 110.044 172.992 111.273ZM166.766 111.273C166.766 112.336 166.846 113.221 167.008 113.93C167.169 114.638 167.43 115.169 167.789 115.523C168.154 115.872 168.63 116.047 169.219 116.047C169.807 116.047 170.281 115.872 170.641 115.523C171.005 115.174 171.268 114.646 171.43 113.938C171.596 113.229 171.68 112.341 171.68 111.273C171.68 110.227 171.599 109.352 171.438 108.648C171.276 107.94 171.016 107.409 170.656 107.055C170.297 106.695 169.818 106.516 169.219 106.516C168.62 106.516 168.141 106.695 167.781 107.055C167.422 107.409 167.161 107.94 167 108.648C166.844 109.352 166.766 110.227 166.766 111.273ZM182.148 111.273C182.148 112.201 182.078 113.029 181.938 113.758C181.797 114.487 181.576 115.104 181.273 115.609C180.971 116.115 180.581 116.5 180.102 116.766C179.622 117.026 179.047 117.156 178.375 117.156C177.526 117.156 176.823 116.924 176.266 116.461C175.714 115.997 175.299 115.328 175.023 114.453C174.753 113.573 174.617 112.513 174.617 111.273C174.617 110.055 174.74 109.008 174.984 108.133C175.234 107.253 175.635 106.578 176.188 106.109C176.74 105.635 177.469 105.398 178.375 105.398C179.234 105.398 179.943 105.633 180.5 106.102C181.057 106.565 181.471 107.237 181.742 108.117C182.013 108.992 182.148 110.044 182.148 111.273ZM175.922 111.273C175.922 112.336 176.003 113.221 176.164 113.93C176.326 114.638 176.586 115.169 176.945 115.523C177.31 115.872 177.786 116.047 178.375 116.047C178.964 116.047 179.438 115.872 179.797 115.523C180.161 115.174 180.424 114.646 180.586 113.938C180.753 113.229 180.836 112.341 180.836 111.273C180.836 110.227 180.755 109.352 180.594 108.648C180.432 107.94 180.172 107.409 179.812 107.055C179.453 106.695 178.974 106.516 178.375 106.516C177.776 106.516 177.297 106.695 176.938 107.055C176.578 107.409 176.318 107.94 176.156 108.648C176 109.352 175.922 110.227 175.922 111.273Z" fill="#F1F1F1"/>
<path d="M29.0049 159.101C29.0049 159.524 28.8991 159.885 28.6875 160.185C28.4792 160.481 28.1862 160.707 27.8086 160.863C27.431 161.02 26.9867 161.098 26.4756 161.098C26.2054 161.098 25.9499 161.085 25.709 161.059C25.4681 161.033 25.2467 160.995 25.0449 160.946C24.8431 160.897 24.6657 160.837 24.5127 160.766V159.97C24.7568 160.071 25.0547 160.165 25.4062 160.253C25.7578 160.338 26.1257 160.38 26.5098 160.38C26.8678 160.38 27.1706 160.333 27.418 160.238C27.6654 160.141 27.8525 160.002 27.9795 159.823C28.1097 159.641 28.1748 159.423 28.1748 159.169C28.1748 158.925 28.1211 158.721 28.0137 158.559C27.9062 158.393 27.7272 158.243 27.4766 158.109C27.2292 157.973 26.8906 157.828 26.4609 157.675C26.1582 157.567 25.8913 157.45 25.6602 157.323C25.429 157.193 25.2354 157.047 25.0791 156.884C24.9229 156.721 24.804 156.532 24.7227 156.317C24.6445 156.103 24.6055 155.857 24.6055 155.58C24.6055 155.199 24.7015 154.874 24.8936 154.604C25.0889 154.33 25.3574 154.122 25.6992 153.979C26.0443 153.832 26.4398 153.759 26.8857 153.759C27.2666 153.759 27.6182 153.795 27.9404 153.866C28.266 153.938 28.5638 154.034 28.834 154.154L28.5752 154.867C28.318 154.76 28.0446 154.67 27.7549 154.599C27.4684 154.527 27.1722 154.491 26.8662 154.491C26.5602 154.491 26.3014 154.537 26.0898 154.628C25.8815 154.716 25.722 154.841 25.6113 155.004C25.5007 155.167 25.4453 155.36 25.4453 155.585C25.4453 155.836 25.4974 156.044 25.6016 156.21C25.709 156.376 25.8783 156.524 26.1094 156.654C26.3438 156.781 26.653 156.915 27.0371 157.055C27.457 157.208 27.8135 157.37 28.1064 157.543C28.3994 157.712 28.6224 157.921 28.7754 158.168C28.9284 158.412 29.0049 158.723 29.0049 159.101ZM36.6562 157.421C36.6562 157.971 36.5863 158.472 36.4463 158.925C36.3063 159.374 36.098 159.761 35.8213 160.087C35.5479 160.409 35.2077 160.658 34.8008 160.834C34.3939 161.01 33.9219 161.098 33.3848 161.098C32.8314 161.098 32.348 161.01 31.9346 160.834C31.5244 160.658 31.1826 160.408 30.9092 160.082C30.639 159.757 30.4355 159.368 30.2988 158.915C30.1654 158.463 30.0986 157.961 30.0986 157.411C30.0986 156.682 30.2191 156.042 30.46 155.492C30.7008 154.942 31.0654 154.514 31.5537 154.208C32.0452 153.902 32.6605 153.749 33.3994 153.749C34.1058 153.749 34.6999 153.9 35.1816 154.203C35.6667 154.506 36.0329 154.932 36.2803 155.482C36.5309 156.029 36.6562 156.675 36.6562 157.421ZM30.9727 157.421C30.9727 158.026 31.0589 158.55 31.2314 158.993C31.404 159.436 31.6676 159.778 32.0225 160.019C32.3805 160.259 32.8346 160.38 33.3848 160.38C33.9382 160.38 34.3906 160.259 34.7422 160.019C35.097 159.778 35.359 159.436 35.5283 158.993C35.6976 158.55 35.7822 158.026 35.7822 157.421C35.7822 156.5 35.5885 155.78 35.2012 155.263C34.8171 154.742 34.2165 154.481 33.3994 154.481C32.846 154.481 32.3903 154.6 32.0322 154.838C31.6742 155.076 31.4072 155.414 31.2314 155.854C31.0589 156.29 30.9727 156.812 30.9727 157.421ZM43.8291 161H42.8721L38.9805 155.004H38.9414C38.9512 155.163 38.9626 155.346 38.9756 155.551C38.9886 155.753 38.9984 155.969 39.0049 156.2C39.0146 156.428 39.0195 156.661 39.0195 156.898V161H38.248V153.861H39.2002L43.0771 159.838H43.1113C43.1048 159.724 43.0967 159.563 43.0869 159.354C43.0771 159.143 43.0674 158.917 43.0576 158.676C43.0511 158.432 43.0479 158.205 43.0479 157.997V153.861H43.8291V161ZM47.5986 157.44L49.498 153.861H50.3916L48.0137 158.231V161H47.1836V158.271L44.8008 153.861H45.709L47.5986 157.44ZM55.8506 161L54.9717 158.734H52.1104L51.2363 161H50.3965L53.1895 153.832H53.9365L56.71 161H55.8506ZM54.7227 157.997L53.8877 155.746C53.8682 155.688 53.8356 155.591 53.79 155.458C53.7477 155.325 53.7038 155.186 53.6582 155.043C53.6126 154.9 53.5752 154.784 53.5459 154.696C53.5133 154.83 53.4775 154.963 53.4385 155.097C53.4027 155.227 53.3669 155.349 53.3311 155.463C53.2952 155.574 53.2643 155.668 53.2383 155.746L52.3887 157.997H54.7227ZM63.4385 161L61.041 154.682H61.002C61.015 154.815 61.0264 154.978 61.0361 155.17C61.0459 155.362 61.054 155.572 61.0605 155.8C61.0671 156.024 61.0703 156.254 61.0703 156.488V161H60.2988V153.861H61.5293L63.79 159.799H63.8242L66.1191 153.861H67.3398V161H66.5195V156.43C66.5195 156.218 66.5228 156.007 66.5293 155.795C66.5358 155.58 66.5439 155.378 66.5537 155.189C66.5635 154.997 66.5732 154.831 66.583 154.691H66.5439L64.1172 161H63.4385ZM73.7705 161L72.8916 158.734H70.0303L69.1562 161H68.3164L71.1094 153.832H71.8564L74.6299 161H73.7705ZM72.6426 157.997L71.8076 155.746C71.7881 155.688 71.7555 155.591 71.71 155.458C71.6676 155.325 71.6237 155.186 71.5781 155.043C71.5326 154.9 71.4951 154.784 71.4658 154.696C71.4333 154.83 71.3975 154.963 71.3584 155.097C71.3226 155.227 71.2868 155.349 71.251 155.463C71.2152 155.574 71.1842 155.668 71.1582 155.746L70.3086 157.997H72.6426ZM77.5498 153.861C78.1357 153.861 78.6191 153.935 79 154.081C79.3841 154.224 79.6706 154.444 79.8594 154.74C80.0482 155.036 80.1426 155.414 80.1426 155.873C80.1426 156.251 80.0742 156.566 79.9375 156.82C79.8008 157.071 79.6217 157.274 79.4004 157.431C79.179 157.587 78.943 157.707 78.6924 157.792L80.6504 161H79.6836L77.9355 158.021H76.4512V161H75.6211V153.861H77.5498ZM77.501 154.579H76.4512V157.318H77.584C78.1667 157.318 78.5947 157.2 78.8682 156.962C79.1449 156.724 79.2832 156.374 79.2832 155.912C79.2832 155.427 79.1367 155.084 78.8438 154.882C78.554 154.68 78.1064 154.579 77.501 154.579ZM84.9326 161L82.5352 154.682H82.4961C82.5091 154.815 82.5205 154.978 82.5303 155.17C82.54 155.362 82.5482 155.572 82.5547 155.8C82.5612 156.024 82.5645 156.254 82.5645 156.488V161H81.793V153.861H83.0234L85.2842 159.799H85.3184L87.6133 153.861H88.834V161H88.0137V156.43C88.0137 156.218 88.0169 156.007 88.0234 155.795C88.0299 155.58 88.0381 155.378 88.0479 155.189C88.0576 154.997 88.0674 154.831 88.0771 154.691H88.0381L85.6113 161H84.9326ZM94.7617 161H90.7871V153.861H94.7617V154.594H91.6172V156.903H94.5811V157.626H91.6172V160.268H94.7617V161ZM96.3438 161V153.861H97.1738V160.258H100.343V161H96.3438ZM106.046 161L105.167 158.734H102.306L101.432 161H100.592L103.385 153.832H104.132L106.905 161H106.046ZM104.918 157.997L104.083 155.746C104.063 155.688 104.031 155.591 103.985 155.458C103.943 155.325 103.899 155.186 103.854 155.043C103.808 154.9 103.771 154.784 103.741 154.696C103.709 154.83 103.673 154.963 103.634 155.097C103.598 155.227 103.562 155.349 103.526 155.463C103.491 155.574 103.46 155.668 103.434 155.746L102.584 157.997H104.918ZM113.565 157.362C113.565 158.166 113.419 158.839 113.126 159.379C112.833 159.916 112.408 160.321 111.852 160.595C111.298 160.865 110.626 161 109.835 161H107.896V153.861H110.05C110.776 153.861 111.401 153.995 111.925 154.262C112.449 154.525 112.853 154.918 113.136 155.438C113.422 155.956 113.565 156.597 113.565 157.362ZM112.691 157.392C112.691 156.75 112.584 156.221 112.369 155.805C112.158 155.388 111.845 155.079 111.432 154.877C111.021 154.672 110.519 154.569 109.923 154.569H108.727V160.287H109.737C110.72 160.287 111.458 160.045 111.949 159.56C112.444 159.075 112.691 158.352 112.691 157.392ZM121.344 157.421C121.344 157.971 121.274 158.472 121.134 158.925C120.994 159.374 120.785 159.761 120.509 160.087C120.235 160.409 119.895 160.658 119.488 160.834C119.081 161.01 118.609 161.098 118.072 161.098C117.519 161.098 117.035 161.01 116.622 160.834C116.212 160.658 115.87 160.408 115.597 160.082C115.326 159.757 115.123 159.368 114.986 158.915C114.853 158.463 114.786 157.961 114.786 157.411C114.786 156.682 114.907 156.042 115.147 155.492C115.388 154.942 115.753 154.514 116.241 154.208C116.733 153.902 117.348 153.749 118.087 153.749C118.793 153.749 119.387 153.9 119.869 154.203C120.354 154.506 120.72 154.932 120.968 155.482C121.218 156.029 121.344 156.675 121.344 157.421ZM115.66 157.421C115.66 158.026 115.746 158.55 115.919 158.993C116.091 159.436 116.355 159.778 116.71 160.019C117.068 160.259 117.522 160.38 118.072 160.38C118.626 160.38 119.078 160.259 119.43 160.019C119.785 159.778 120.047 159.436 120.216 158.993C120.385 158.55 120.47 158.026 120.47 157.421C120.47 156.5 120.276 155.78 119.889 155.263C119.505 154.742 118.904 154.481 118.087 154.481C117.534 154.481 117.078 154.6 116.72 154.838C116.362 155.076 116.095 155.414 115.919 155.854C115.746 156.29 115.66 156.812 115.66 157.421ZM127.921 153.861L125.357 161H124.522L121.959 153.861H122.828L124.498 158.563C124.566 158.752 124.627 158.933 124.679 159.105C124.734 159.278 124.783 159.444 124.825 159.604C124.868 159.763 124.905 159.918 124.938 160.067C124.97 159.918 125.007 159.763 125.05 159.604C125.092 159.441 125.141 159.273 125.196 159.101C125.252 158.925 125.313 158.741 125.382 158.549L127.042 153.861H127.921ZM133.38 161L132.501 158.734H129.64L128.766 161H127.926L130.719 153.832H131.466L134.239 161H133.38ZM132.252 157.997L131.417 155.746C131.397 155.688 131.365 155.591 131.319 155.458C131.277 155.325 131.233 155.186 131.188 155.043C131.142 154.9 131.104 154.784 131.075 154.696C131.043 154.83 131.007 154.963 130.968 155.097C130.932 155.227 130.896 155.349 130.86 155.463C130.825 155.574 130.794 155.668 130.768 155.746L129.918 157.997H132.252Z" fill="#F1F1F1"/>
<defs>
<filter id="filter0_d_417_4862" x="0" y="0" width="323" height="192" filterUnits="userSpaceOnUse" color-interpolation-filters="sRGB">
<feFlood flood-opacity="0" result="BackgroundImageFix"/>
<feColorMatrix in="SourceAlpha" type="matrix" values="0 0 0 0 0 0 0 0 0 0 0 0 0 0 0 0 0 0 127 0" result="hardAlpha"/>
<feOffset dy="2"/>
<feGaussianBlur stdDeviation="2"/>
<feComposite in2="hardAlpha" operator="out"/>
<feColorMatrix type="matrix" values="0 0 0 0 0 0 0 0 0 0 0 0 0 0 0 0 0 0 0.1 0"/>
<feBlend mode="normal" in2="BackgroundImageFix" result="effect1_dropShadow_417_4862"/>
<feBlend mode="normal" in="SourceGraphic" in2="effect1_dropShadow_417_4862" result="shape"/>
</filter>
</defs>
</svg>
