<svg width="18" height="14" viewBox="0 0 18 14" fill="none" xmlns="http://www.w3.org/2000/svg">
<path d="M4.24366 0.587716C3.52038 0.911134 2.88752 1.21021 2.84428 1.25542C2.73814 1.35627 0.139847 4.72955 0.0572986 4.86866C-0.0252494 5.00776 -0.0173877 5.21294 0.0730221 5.33814C0.183086 5.49115 8.56761 13.8409 8.69732 13.9244C8.85063 14.0252 9.14937 14.0252 9.30268 13.9244C9.43239 13.8409 17.8169 5.49115 17.927 5.33814C18.0174 5.21294 18.0252 5.00776 17.9427 4.86866C17.8602 4.72955 15.2619 1.35627 15.1557 1.25542C15.1125 1.21021 14.4757 0.911134 13.7485 0.587716L12.4198 0L8.99214 0.0034771H5.5605L4.24366 0.587716ZM12.8129 1.28324L13.5008 1.59275L12.7815 1.90921L12.0661 2.22567H9H5.93393L5.21852 1.90921L4.49917 1.59275L5.18707 1.28324L5.87497 0.977209H9H12.125L12.8129 1.28324ZM5.13204 3.08812C5.12024 3.14028 5.00232 3.81494 4.8726 4.59045C4.73895 5.36596 4.62102 6.02323 4.6053 6.05452C4.58172 6.09973 4.32228 6.00932 3.00937 5.49811C2.14851 5.16078 1.44096 4.87561 1.43703 4.8617C1.43703 4.84779 1.88515 4.24964 2.43547 3.53325L3.43784 2.23263L4.29476 2.61516C5.13204 2.98379 5.15169 2.99422 5.13204 3.08812ZM15.6943 3.70366C16.1817 4.33311 16.5669 4.8617 16.5512 4.87561C16.5394 4.88952 15.8279 5.17469 14.9749 5.50506C13.6699 6.01627 13.4183 6.10321 13.3947 6.05452C13.379 6.02323 13.2611 5.36596 13.1274 4.59045C12.9977 3.81494 12.8798 3.14028 12.868 3.08812C12.8483 2.99422 12.868 2.98379 13.7052 2.61516L14.5622 2.23263L14.684 2.39608C14.7548 2.48302 15.2068 3.07073 15.6943 3.70366ZM11.7673 3.2933C11.7791 3.34894 11.897 4.00969 12.0268 4.76433C12.1565 5.51897 12.2744 6.17972 12.2862 6.23188L12.3098 6.32926H9H5.69022L5.7138 6.23188C5.7256 6.17972 5.84352 5.51897 5.97324 4.76433C6.10296 4.00969 6.22088 3.34894 6.23268 3.2933L6.25626 3.1994H9H11.7437L11.7673 3.2933ZM3.89775 6.93088L4.63282 7.21605L5.23031 8.22455C6.20516 9.86946 6.34274 10.1025 6.2995 10.0677C6.27985 10.0468 5.49368 9.26436 4.55813 8.32888C3.62259 7.38993 2.82069 6.5866 2.77352 6.54487L2.69097 6.4614L2.92682 6.5553C3.05654 6.60399 3.49287 6.77439 3.89775 6.93088ZM15.2225 6.54487C15.1793 6.59008 14.3774 7.38993 13.4419 8.32888C12.5063 9.26436 11.7202 10.0468 11.7005 10.0677C11.6573 10.1059 11.7988 9.86251 12.7697 8.22455L13.3672 7.21605L14.3185 6.84394C14.8413 6.64224 15.2776 6.47184 15.2854 6.47184C15.2972 6.46836 15.2658 6.50314 15.2225 6.54487ZM11.7752 7.74812C10.4623 9.98075 9.01572 12.4151 9 12.4151C8.98821 12.4116 8.30424 11.2709 7.48269 9.87642L5.9811 7.33776H9H12.0189L11.7752 7.74812Z" fill="#6C639E"/>
</svg>
