<svg width="80" height="80" viewBox="0 0 80 80" fill="none" xmlns="http://www.w3.org/2000/svg">
<rect x="0.5" y="0.5" width="79" height="79" rx="9.5" fill="#F5F5F5" stroke="#F5F5F5"/>
<path d="M40 32C40.4418 32 40.8 32.3582 40.8 32.8V39.2H47.2C47.6418 39.2 48 39.5582 48 40C48 40.4418 47.6418 40.8 47.2 40.8H40.8V47.2C40.8 47.6418 40.4418 48 40 48C39.5582 48 39.2 47.6418 39.2 47.2V40.8H32.8C32.3582 40.8 32 40.4418 32 40C32 39.5582 32.3582 39.2 32.8 39.2H39.2V32.8C39.2 32.3582 39.5582 32 40 32Z" fill="#686868"/>
</svg>
