<svg width="12" height="9" viewBox="0 0 12 9" fill="none" xmlns="http://www.w3.org/2000/svg">
<path d="M8.45455 5.0625C9.3194 5.0625 10.0499 5.65556 10.2846 6.46884L11.4545 6.46875C11.7558 6.46875 12 6.72059 12 7.03125C12 7.34191 11.7558 7.59375 11.4545 7.59375L10.2844 7.59422C10.0496 8.40721 9.3192 9 8.45455 9C7.58989 9 6.85949 8.40721 6.62465 7.59422L0.545455 7.59375C0.244208 7.59375 0 7.34191 0 7.03125C0 6.72059 0.244208 6.46875 0.545455 6.46875L6.62449 6.46884C6.85915 5.65556 7.58969 5.0625 8.45455 5.0625ZM8.45455 6.04688C7.92736 6.04688 7.5 6.48759 7.5 7.03125C7.5 7.57491 7.92736 8.01562 8.45455 8.01562C8.98173 8.01562 9.40909 7.57491 9.40909 7.03125C9.40909 6.48759 8.98173 6.04688 8.45455 6.04688ZM4.09091 0C4.95577 0 5.6863 0.593063 5.92097 1.40634L11.4545 1.40625C11.7558 1.40625 12 1.65809 12 1.96875C12 2.27941 11.7558 2.53125 11.4545 2.53125L5.92081 2.53172C5.68596 3.34471 4.95557 3.9375 4.09091 3.9375C3.22625 3.9375 2.49585 3.34471 2.26101 2.53172L0.545455 2.53125C0.244208 2.53125 0 2.27941 0 1.96875C0 1.65809 0.244208 1.40625 0.545455 1.40625L2.26085 1.40634C2.49552 0.593063 3.22605 0 4.09091 0ZM4.09091 0.984375C3.56373 0.984375 3.13636 1.42509 3.13636 1.96875C3.13636 2.51241 3.56373 2.95312 4.09091 2.95312C4.61809 2.95312 5.04545 2.51241 5.04545 1.96875C5.04545 1.42509 4.61809 0.984375 4.09091 0.984375Z" fill="white"/>
</svg>
