<svg width="230" height="178" viewBox="0 0 230 178" fill="none" xmlns="http://www.w3.org/2000/svg">
<path d="M153.433 0.041916C150.919 0.483101 147.852 1.88687 145.985 3.49118C145.338 4.05269 143.585 5.15565 142.08 5.95781C136.575 8.88567 132.499 12.3951 131.223 15.2227C130.88 16.0248 130.69 16.7067 130.766 16.9072C130.842 17.1679 130.994 16.9473 131.337 16.085C131.966 14.4807 132.613 13.5582 134.271 11.9138C136.118 10.0889 139.014 8.10357 142.48 6.23856C144.004 5.41635 145.719 4.33344 146.29 3.8321C147.509 2.74919 150.29 1.28526 151.909 0.844071C154.824 0.0619699 157.776 0.242455 161.719 1.42563C170.805 4.17301 176.138 9.76804 182.748 23.4849C186.939 32.1682 189.434 35.1763 201.053 45.5642C208.482 52.202 211.701 55.7917 214.159 60.1634C214.978 61.6273 216.578 65.5579 216.578 66.1194C216.578 66.2999 216.159 66.0191 215.492 65.3574C212.159 62.1086 207.701 59.4014 201.911 57.1152C198.196 55.6513 191.301 53.666 189.91 53.666C189.167 53.666 189.548 54.0269 190.444 54.1673C192.025 54.4079 196.977 55.8117 199.72 56.7743C207.835 59.6621 214.063 63.6728 217.283 68.1248C217.949 69.0673 218.292 69.328 218.292 68.9269C218.292 68.8267 217.93 68.2652 217.511 67.7037C216.959 66.9817 216.787 66.6007 216.959 66.5004C217.111 66.4002 216.997 65.8186 216.482 64.3747C214.425 58.519 210.559 53.4454 203.054 46.7474C196.044 40.4705 194.501 39.0266 192.291 36.7204C188.139 32.3487 186.044 29.2805 183.205 23.4047C177.186 10.9312 172.291 5.19576 165.052 2.14757C161.89 0.803963 158.938 0.102078 156.29 0.0218621C155.033 -0.0182456 153.757 0.00180826 153.433 0.041916Z" fill="black"/>
<path d="M129.851 18.9126C129.794 19.0129 129.699 19.4541 129.623 19.9153C129.547 20.4768 129.413 20.7175 129.242 20.6573C129.089 20.5771 128.823 21.0985 128.423 22.2416C126.366 28.2176 126.118 33.1108 127.699 36.7405C128.194 37.8836 129.775 39.7887 130.747 40.4104C131.261 40.7513 131.375 41.012 131.68 42.3756C132.004 43.9599 132.594 45.2433 132.975 45.2433C133.09 45.2433 133.147 45.1832 133.109 45.0829C132.042 42.9171 131.623 40.651 131.623 37.2017V34.8153L132.537 35.4972C135.28 37.5627 139.928 39.1269 148.576 40.9117C150.881 41.393 152.804 41.8141 152.843 41.8542C152.862 41.8943 153.376 42.877 153.985 44.0201C154.595 45.1832 155.585 46.8878 156.176 47.8303C159.795 53.5055 161.852 60.0431 163.09 69.7692C163.452 72.6169 163.51 74.0608 163.529 81.6411C163.567 88.4795 163.624 90.6654 163.871 92.1694C164.748 97.6241 166.633 101.775 169.7 104.904C170.272 105.485 170.672 105.766 170.672 105.585C170.672 105.425 170.234 104.843 169.719 104.302C167.014 101.494 165.224 97.5438 164.367 92.4502C164.005 90.2843 163.967 89.2014 163.91 81.24C163.89 74.3215 163.814 71.8949 163.567 70.0099C162.195 59.642 160.29 53.5858 156.405 47.349C153.604 42.8569 151.357 37.6229 149.452 31.1254C148.69 28.5786 147.319 23.1239 146.957 21.2188C146.785 20.2963 146.404 20.3966 146.576 21.3191C147.319 25.7109 149.7 33.8929 151.719 39.1069C151.852 39.4277 151.814 39.4478 151.509 39.2673C150.785 38.8462 148.252 36.4196 146.842 34.7953C144.023 31.5265 140.29 26.3325 137.452 21.7202C136.499 20.1961 136.004 19.6346 136.004 20.1158C136.004 20.3364 139.471 25.751 141.071 28.0171C144.823 33.3313 148.747 37.8234 151.185 39.6082C152.233 40.3703 152.728 40.9518 152.519 41.1724C152.366 41.3128 145.242 39.8087 142.042 38.9464C137.071 37.6028 133.509 36.0186 131.947 34.4544C131.261 33.7525 130.213 31.4463 129.889 29.9021C129.432 27.7163 129.623 21.1386 130.213 19.1131C130.309 18.7923 130.023 18.6118 129.851 18.9126ZM129.318 22.2817C128.861 26.0919 129.299 30.3834 130.385 32.7498C131.051 34.1536 131.051 34.2338 131.147 37.2218L131.242 40.2499L130.709 39.8489C126.956 37.0413 126.061 31.0853 128.328 23.886C128.899 22.041 129.337 20.8979 129.413 20.9982C129.451 21.0383 129.413 21.6199 129.318 22.2817Z" fill="black"/>
<path d="M157.528 22.0611C157.528 22.1012 158.347 23.9261 159.357 26.112C164.843 38.1042 169.3 49.936 171.11 57.376C172.481 63.0111 172.424 61.9482 172.576 79.8363C172.729 96.9623 172.786 98.1856 173.719 102.978C174.824 108.714 176.843 112.484 179.872 114.489C180.158 114.67 180.481 114.83 180.577 114.83C180.977 114.83 180.729 114.509 179.929 113.968C177.319 112.223 175.186 108.253 174.196 103.199C173.129 97.9048 172.881 93.0317 173.015 80.3376C173.11 69.3882 172.976 64.6956 172.481 61.6274C171.281 54.3879 167.148 42.516 160.957 28.5987C158.919 23.9863 157.928 21.9809 157.719 21.9809C157.605 21.9809 157.528 22.021 157.528 22.0611Z" fill="black"/>
<path d="M182.443 32.1081C182.386 32.1683 182.596 33.0908 182.901 34.1737C183.834 37.4224 185.282 43.6592 185.91 46.9881C186.92 52.4227 187.263 55.3305 187.377 59.5819C187.472 64.1141 187.51 63.8534 185.358 77.1291C183.224 90.3245 182.615 96.7418 183.015 101.354C183.243 104.041 183.586 105.666 183.91 105.606C184.024 105.586 184.062 105.465 184.043 105.345C183.567 103.7 183.377 101.695 183.377 98.5867C183.377 93.6133 183.891 88.8004 185.624 78.1318C187.929 63.9136 187.872 64.4951 187.758 59.5819C187.605 52.7436 186.272 44.9025 183.624 35.1964C182.862 32.3889 182.653 31.8876 182.443 32.1081Z" fill="black"/>
<path d="M133.147 45.5443C133.147 45.6044 133.528 46.186 133.985 46.8478C135.09 48.412 135.337 49.535 135.318 52.7636C135.318 55.0498 135.261 55.491 134.88 56.4335C134.48 57.376 134.461 57.5966 134.652 58.2785C134.918 59.2009 135.775 60.0231 136.671 60.2036C137.795 60.4242 141.166 59.4416 140.766 59.0204C140.709 58.9603 140.176 59.0806 139.566 59.3012C138.956 59.5218 137.966 59.7023 137.394 59.7023C136.118 59.7223 135.452 59.2811 135.109 58.2183C134.899 57.5966 134.918 57.376 135.261 56.5538C136.099 54.5685 135.909 49.2743 134.937 47.5095C134.194 46.1459 133.147 45.0028 133.147 45.5443Z" fill="black"/>
<path d="M141.242 59.8226C141.433 61.5272 141.433 61.5272 142.69 62.2492L143.833 62.9109L143.071 63.8134C142.137 64.8562 142.061 65.6383 142.709 67.7239L143.109 69.0675L142.518 70.0301C141.757 71.2132 141.757 71.6745 142.48 73.2788C142.804 73.9807 143.052 74.7628 143.052 75.0034C143.052 75.2441 142.709 75.946 142.29 76.5275C141.337 77.8711 141.318 78.4727 142.137 80.2375L142.747 81.541L142.233 82.1025C141.737 82.6439 141.585 83.3659 141.833 84.0277C142.061 84.6293 142.328 84.3686 142.214 83.6667C142.118 83.1052 142.176 82.8846 142.576 82.4233C143.185 81.7215 143.185 81.3805 142.48 79.9367C142.176 79.2749 141.909 78.5329 141.909 78.2923C141.909 78.0316 142.252 77.3497 142.671 76.7481C143.585 75.4847 143.642 74.7427 142.976 73.359C142.233 71.7948 142.214 71.3336 142.861 70.3108C143.528 69.248 143.547 68.9471 143.052 67.403C142.461 65.6182 142.537 65.0366 143.452 63.9938C144.099 63.2519 144.29 63.1315 144.595 63.312C144.785 63.4123 144.957 63.6128 144.957 63.7331C144.957 63.8735 145.147 64.1743 145.376 64.435C145.985 65.1369 145.89 65.8789 144.995 67.2025C144.08 68.5461 143.985 69.2881 144.576 70.5113C145.09 71.5742 145.071 71.7747 144.271 73.1384C143.68 74.1411 143.604 74.4018 143.718 75.0636C143.795 75.4647 143.966 76.0663 144.138 76.3871C144.385 76.9085 144.385 77.069 144.118 77.9313C143.718 79.1947 143.738 79.6359 144.195 81.0396C144.633 82.3632 144.69 83.5464 144.347 83.9274C144.138 84.1279 144.176 84.168 144.48 84.1079C145.052 84.0076 145.09 82.5838 144.557 80.799C144.138 79.3551 144.138 79.3351 144.48 78.2321C144.842 77.1492 144.842 77.089 144.499 76.1665C143.928 74.6424 143.947 74.482 144.671 73.3189C145.433 72.0755 145.49 71.4338 144.957 70.3108C144.404 69.1878 144.48 68.7266 145.338 67.4431C146.347 65.9792 146.48 65.2572 145.909 64.4551L145.471 63.8334L146.099 64.2144C146.442 64.435 146.919 64.8562 147.166 65.157C147.566 65.6583 147.623 65.919 147.623 67.4832C147.623 68.9271 147.68 69.3081 147.966 69.5688C148.157 69.7694 148.423 69.9097 148.538 69.9097C148.652 69.9097 148.881 70.4311 149.052 71.0528C149.566 73.0582 149.604 73.1585 150.157 73.5996C150.747 74.0609 152.366 74.1812 153.757 73.8603L154.462 73.6999L154.614 74.6625C154.938 76.6679 154.728 80.6987 154.138 84.6493C153.414 89.362 153.147 91.9289 153.166 93.8139C153.185 95.4584 153.528 97.1429 153.814 96.9824C153.928 96.9223 153.966 96.7819 153.947 96.6816C153.338 94.8768 153.509 91.588 154.5 84.9501C155.109 80.9193 155.3 77.1893 155.014 74.6224L154.881 73.4192L156.538 72.5769C158.557 71.5542 162.195 68.9271 161.929 68.6463C161.833 68.5461 161.224 68.887 160.367 69.5488C156.309 72.6772 153.033 74.0809 151.09 73.5395C150.214 73.2788 149.833 72.7975 149.642 71.7346C149.357 70.1103 149.128 69.5087 148.804 69.5087C148.157 69.5087 148.004 69.0875 148.004 67.2225V65.4377L147.185 64.6155C146.747 64.1543 145.433 63.2719 144.29 62.6101C141.737 61.1863 141.718 61.1662 141.718 60.4844C141.718 59.6221 141.49 58.6796 141.299 58.6796C141.185 58.6796 141.166 59.1408 141.242 59.8226Z" fill="black"/>
<path d="M114.784 59.3011C114.289 59.3813 113.241 59.7824 112.498 60.1634C111.737 60.5645 111.032 60.8854 110.917 60.8854C110.803 60.8854 110.651 61.0257 110.594 61.2062C110.289 62.0485 110.67 63.1715 111.432 63.5926C111.832 63.8132 111.718 63.8935 109.946 64.6756C108.06 65.5178 108.022 65.5579 107.679 66.4604C106.975 68.3655 107.317 69.8294 108.689 70.812C109.146 71.153 109.241 71.3134 109.127 71.7145C109.051 71.9952 108.994 72.8174 108.975 73.5394C108.956 75.284 109.413 76.0461 110.822 76.6277C111.489 76.8884 111.946 77.2293 112.175 77.6304C112.975 79.0341 114.575 79.9967 115.946 79.8964C116.841 79.8363 117.28 80.117 118.003 81.1598C119.299 83.0048 119.832 83.1051 122.289 82.0422C123.185 81.6612 124.118 81.3403 124.385 81.3403C124.937 81.3403 126.804 83.1652 126.594 83.5061C126.537 83.6064 126.594 83.7869 126.727 83.9072C127.299 84.3885 141.814 85.2107 148.195 85.1104C151.947 85.0503 152.1 85.0302 152.1 84.6492C152.1 84.0275 151.319 83.7668 148.709 83.5262C145.89 83.2454 145.795 83.1652 146.557 81.4606C147.166 80.097 147.185 79.2547 146.576 78.232C145.985 77.2092 145.985 76.7881 146.614 75.5247C147.071 74.5822 147.109 74.4418 146.861 73.8602C146.385 72.6369 146.404 71.6543 146.938 70.4711C147.452 69.308 147.566 68.7064 147.242 68.7064C147.147 68.7064 147.052 68.8066 147.052 68.947C147.052 69.0674 146.842 69.6489 146.576 70.2305C145.871 71.7947 145.833 72.276 146.271 73.4591L146.652 74.5019L146.195 75.4244C145.604 76.5875 145.604 77.4098 146.195 78.4325C146.804 79.4553 146.785 80.0569 146.157 81.3403C145.68 82.3029 145.661 82.4232 145.89 83.3457C146.023 83.8872 146.08 84.4286 146.004 84.5489C145.909 84.7094 144.918 84.7495 142.595 84.6492C135.49 84.3885 127.242 83.7869 127.242 83.5462C127.242 83.3056 128.518 83.1452 130.347 83.1452C131.451 83.1452 132.004 83.065 132.004 82.9246C132.004 82.7641 131.28 82.724 129.432 82.7842L126.88 82.8845L125.966 81.9018C124.842 80.6986 124.423 80.6785 122.156 81.6411C119.794 82.6438 119.527 82.6037 118.403 80.9593C117.622 79.7962 116.765 79.2547 116.003 79.4151C114.841 79.6558 113.356 78.7935 112.498 77.3697C112.213 76.8884 111.794 76.5474 111.051 76.2466C109.394 75.5447 109.165 74.8028 109.565 71.4137C109.603 71.1529 110.041 70.792 110.86 70.3307C112.613 69.3682 117.508 66.34 118.213 65.7986C118.746 65.3774 119.051 65.3173 122.061 65.1769L125.337 65.0365V65.5379C125.337 66.1997 125.07 66.4202 122.48 67.9042C117.908 70.5513 116.06 71.9351 114.479 73.9204C113.146 75.6049 113.794 75.3041 115.565 73.4391C117.318 71.5941 118.746 70.5714 122.861 68.205C124.175 67.463 125.337 66.721 125.47 66.5606C125.756 66.1796 126.099 66.4002 126.099 66.9216C126.099 67.5834 125.432 68.7064 123.756 70.9123C121.889 73.3388 119.089 76.2667 117.946 76.9485C117.146 77.4298 116.937 77.7306 117.394 77.7306C118.365 77.7306 122.48 73.5594 124.956 70.07C125.546 69.2077 126.099 68.566 126.156 68.6262C126.213 68.6863 126.594 68.546 127.032 68.3254C128.023 67.7839 128.67 67.7839 129.032 68.3254C129.28 68.7264 129.28 68.8267 129.032 69.3481C128.861 69.669 128.137 70.6315 127.413 71.4538C125.013 74.161 123.432 76.4271 123.432 77.129C123.432 77.5702 123.737 77.2894 124.175 76.4271C124.651 75.4846 126.347 73.2787 128.194 71.2131C128.785 70.5513 129.375 69.7091 129.528 69.3481C129.832 68.5259 129.794 68.4657 131.166 71.8749C131.756 73.3388 132.442 74.8429 132.69 75.2439C132.937 75.625 133.147 76.2065 133.147 76.5274C133.147 76.8282 133.451 77.6905 133.813 78.4125C134.613 79.9967 134.652 80.6384 134.023 81.1598C133.413 81.6612 133.185 82.6839 133.604 83.1051C133.832 83.3658 133.966 83.3658 134.137 83.1853C134.309 83.0048 134.309 82.9446 134.137 82.9446C133.699 82.9446 133.89 81.8617 134.423 81.4205C135.109 80.839 135.052 79.8964 134.194 78.2119C133.432 76.6678 133.356 75.7854 133.832 73.8402C134.29 72.0554 134.232 70.9925 133.642 69.6289C133.223 68.6462 133.166 68.2652 133.261 67.4229C133.356 66.6208 133.337 66.4403 133.147 66.6408C132.671 67.1021 132.709 68.546 133.223 69.7091C133.813 71.0326 133.851 72.1155 133.375 73.9003L133.032 75.1637L132.309 73.4993C131.909 72.5768 131.47 71.4939 131.337 71.0928C130.785 69.4684 129.699 67.6235 127.947 65.3173C127.756 65.0967 128.099 65.0566 130.061 65.1368C132.347 65.217 132.994 65.0766 131.775 64.7758C131.013 64.5753 123.737 64.5953 121.013 64.7959C119.108 64.9363 118.88 64.8761 119.222 64.3346C119.508 63.8333 130.518 63.352 132.137 63.7731C132.747 63.9135 132.747 63.9336 132.632 64.9162C132.556 65.578 132.594 65.8988 132.747 65.8988C132.861 65.8988 132.956 65.6181 132.956 65.2972C132.956 64.8961 133.128 64.4951 133.432 64.1742C133.699 63.8935 133.909 63.6528 133.909 63.6127C133.909 63.4122 129.394 63.0712 127.566 63.1114L125.432 63.1715L123.527 61.848C122.461 61.106 121.223 60.3239 120.765 60.1033C119.356 59.4615 116.289 59.0404 114.784 59.3011ZM118.899 59.9829C120.327 60.3038 121.527 60.9255 123.527 62.3694L124.67 63.1916L122.099 63.4122C120.689 63.5325 119.47 63.5926 119.394 63.5525C119.299 63.5124 119.242 63.2116 119.242 62.9108C119.242 61.4068 117.641 61.3266 114.537 62.6501C112.479 63.5124 112.041 63.5325 111.298 62.8306C110.46 62.0284 110.708 61.5873 112.441 60.7249C113.299 60.2838 114.137 59.8827 114.289 59.8225C114.88 59.6019 117.565 59.7022 118.899 59.9829ZM118.632 62.3293C118.937 62.6501 118.918 63.9937 118.594 64.6756C118.27 65.3373 118.251 65.3373 114.651 67.5633C111.337 69.6088 109.66 70.5112 109.184 70.5112C108.708 70.5112 108.041 69.7291 107.813 68.927C107.622 68.205 107.984 66.4403 108.403 65.9991C108.67 65.7384 114.232 63.1916 116.099 62.4696C117.222 62.0485 118.308 61.9883 118.632 62.3293ZM128.08 66.2999L128.975 67.5032H128.289C127.908 67.5032 127.261 67.6836 126.842 67.9243C126.08 68.3254 126.08 68.3254 126.27 67.9243C126.594 67.3026 126.518 66.4002 126.099 65.8988C125.566 65.2371 125.623 65.0967 126.461 65.0967C127.127 65.0967 127.261 65.197 128.08 66.2999ZM150.347 84.1679C151.052 84.2882 151.623 84.4487 151.623 84.5489C151.623 84.6292 150.461 84.7294 149.052 84.7294L146.48 84.7695V84.2882C146.48 83.8069 146.499 83.7869 147.776 83.8872C148.48 83.9273 149.623 84.0676 150.347 84.1679Z" fill="black"/>
<path d="M140.652 63.1716C140.328 63.332 139.871 63.693 139.642 64.0139C139.261 64.5353 139.223 64.7358 139.337 65.9591C139.471 67.3027 139.452 67.3629 138.747 68.5661C137.909 69.9899 137.813 70.9525 138.366 72.6972C138.633 73.4994 138.69 74.1411 138.613 75.3042C138.556 76.4673 138.613 77.1291 138.899 78.1318C139.394 79.7963 139.394 80.438 138.918 81.541C138.499 82.4835 138.423 82.8044 138.461 83.3859C138.499 83.9474 138.861 83.807 138.861 83.2255C138.861 82.9447 139.033 82.3231 139.242 81.8217C139.833 80.458 139.871 79.9366 139.452 78.5329C139.166 77.6104 139.052 76.6679 139.052 75.3243C139.052 74.2213 138.918 72.998 138.766 72.4365C138.309 70.8723 138.404 70.0902 139.147 68.7466C139.794 67.6236 139.833 67.4631 139.775 66.0594C139.718 64.3748 139.871 64.0139 140.899 63.5526C141.242 63.4123 141.871 63.2919 142.29 63.2919C142.709 63.2919 143.052 63.1917 143.052 63.0914C143.052 62.7906 141.337 62.8508 140.652 63.1716Z" fill="black"/>
<path d="M138.423 64.4751C137.471 65.578 137.166 66.2799 137.033 67.6436C136.975 68.2853 136.747 69.3682 136.537 70.0701C136.309 70.8121 136.194 71.6142 136.252 71.9752C136.309 72.3362 136.499 73.5996 136.652 74.8229C136.823 76.0261 137.147 77.871 137.356 78.8938C137.814 80.9995 137.737 82.1225 137.128 82.2829C136.652 82.4233 136.652 82.7441 137.128 82.7441C138.042 82.7441 138.366 80.9794 137.814 79.0542C137.661 78.5128 137.433 77.2494 137.337 76.2467C137.223 75.244 137.014 73.7801 136.861 73.018C136.575 71.6544 136.575 71.5541 137.052 69.9297C137.318 68.9872 137.528 67.8642 137.528 67.4029C137.528 66.5406 138.214 65.177 139.014 64.4149C139.242 64.1943 139.433 63.9537 139.433 63.8534C139.433 63.4924 139.071 63.7331 138.423 64.4751Z" fill="black"/>
<path d="M134.652 64.4551C134.156 64.9163 134.061 65.1569 134.061 65.8789C134.08 66.7613 134.385 67.3829 134.709 67.1824C134.823 67.1022 134.823 66.9818 134.69 66.8415C134.575 66.7211 134.48 66.28 134.48 65.8588C134.48 65.2572 134.594 65.0166 135.052 64.6556C135.375 64.4149 135.623 64.1543 135.623 64.054C135.623 63.7331 135.242 63.8935 134.652 64.4551Z" fill="black"/>
<path d="M136.175 64.6154C135.89 64.7558 135.566 65.1569 135.432 65.4978C135.128 66.2799 135.28 68.0246 135.68 68.4658C136.118 68.9069 136.29 68.6262 135.928 68.0647C135.756 67.824 135.623 67.2826 135.623 66.8614C135.623 66.1194 135.947 65.0967 136.194 65.0967C136.252 65.0967 136.461 64.9764 136.671 64.836C137.147 64.455 136.766 64.2745 136.175 64.6154Z" fill="black"/>
<path d="M217.911 69.8896C217.911 70.05 218.463 71.2332 219.168 72.5367C223.092 79.9967 226.768 89.3619 228.273 95.7791C230.159 103.801 230.159 112.424 228.292 130.071C227.873 133.982 226.692 143.146 226.368 145.051L226.254 145.713H223.721C214.14 145.713 206.196 143.648 201.282 139.858C198.158 137.431 195.701 133.32 196.539 131.916C196.653 131.756 197.072 132.137 197.93 133.22C199.168 134.804 201.815 137.291 202.254 137.291C202.596 137.291 202.539 137.03 202.139 136.749C201.949 136.629 201.225 136.027 200.52 135.406C197.739 132.919 195.453 129.089 194.653 125.539C194.291 123.955 194.253 123.373 194.349 120.445C194.482 116.194 195.015 113.487 197.434 104.583C198.444 100.913 199.472 97.0425 199.72 95.9797C200.444 92.9716 201.149 88.6801 200.958 88.4795C200.73 88.2389 200.692 88.3993 200.292 90.9261C200.12 92.0692 199.682 94.2149 199.339 95.719C198.558 98.9878 196.196 107.651 195.987 107.872C195.796 108.132 195.11 104.884 194.787 102.096C194.31 98.1656 194.082 93.4328 194.101 87.5771C194.12 84.5289 194.063 82.0823 193.968 82.1425C193.72 82.3029 193.796 96.7818 194.063 99.5894C194.368 102.678 194.92 106.147 195.415 107.771L195.777 108.995L195.225 111.361C193.796 117.457 193.453 122.591 194.253 125.8C194.482 126.702 194.844 127.865 195.053 128.387C195.263 128.908 195.415 129.349 195.396 129.369C195.263 129.49 188.863 126.482 185.396 124.657C180.329 121.99 177.643 120.084 174.729 117.157C172.062 114.449 168.443 111.16 166.062 109.255C164.748 108.213 163.967 107.35 162.538 105.405C158.767 100.311 155.471 97.6241 152.138 96.9022C151.49 96.7618 150.957 96.5612 150.919 96.4409C150.881 96.3206 151.109 93.8139 151.433 90.8659C151.966 85.9126 152.004 85.0704 151.7 85.3912C151.643 85.4715 151.319 88.0985 150.957 91.267C150.614 94.4155 150.29 97.0425 150.252 97.1027C150.195 97.1428 147.852 96.0599 145.033 94.6762C139.547 91.9689 139.242 91.8686 134.861 91.3673C132.651 91.1066 131.509 91.2269 130.461 91.7684C129.223 92.4502 128.994 94.1748 130.004 95.1775C130.442 95.5987 130.804 95.6789 133.204 95.9195C136.613 96.2203 138.023 96.6816 139.718 98.0452C141.242 99.2485 141.833 100.01 141.642 100.512C141.528 100.813 141.337 100.833 140.099 100.732C139.318 100.652 137.68 100.392 136.442 100.151C133.966 99.6696 129.985 99.5493 128.728 99.9303L128.023 100.151L127.928 99.3287C127.87 98.8674 127.737 95.6388 127.623 92.1694C127.394 85.5316 127.318 84.3885 127.051 84.6693C126.975 84.7696 127.032 88.3191 127.204 92.5505L127.528 100.251L126.937 100.873C126.594 101.234 126.213 101.896 126.099 102.357C125.889 103.059 125.889 103.259 126.156 103.66C126.499 104.222 127.166 104.402 128.937 104.402C131.242 104.402 134.232 104.803 136.613 105.425C137.909 105.766 139.09 106.127 139.242 106.227C139.414 106.327 137.871 106.408 135.432 106.388C133.051 106.388 130.27 106.508 128.785 106.688C126.327 106.969 126.213 107.009 125.604 107.631C124.899 108.353 124.746 109.175 125.242 109.676C125.87 110.358 126.842 110.479 130.404 110.358C133.28 110.258 134.156 110.318 135.642 110.619C139.433 111.381 140.918 112.324 140.69 113.788C140.633 114.229 140.347 114.77 139.947 115.191C139.414 115.753 139.071 115.893 137.794 116.134C136.975 116.294 135.547 116.415 134.632 116.435C132.804 116.435 132.347 116.695 132.137 117.798C131.756 119.884 134.423 120.486 140.195 119.643C144.042 119.082 146.538 119.102 147.985 119.723C150.481 120.786 155.376 121.849 157.852 121.849H159.052L162.519 124.877C164.443 126.562 166.081 127.986 166.157 128.066C166.233 128.146 166.176 128.507 166.024 128.888C165.871 129.269 165.376 130.472 164.938 131.575C162.119 138.714 158.919 144.831 156.709 147.318L155.776 148.34L145.09 143.086C139.204 140.198 133.966 137.632 133.432 137.371C132.918 137.11 129.432 135.406 125.718 133.581C122.004 131.756 118.899 130.272 118.803 130.272C118.137 130.272 119.603 131.094 125.337 133.902C128.956 135.666 136.233 139.256 141.528 141.843C146.823 144.43 157.414 149.624 165.052 153.374C172.71 157.124 182.691 162.037 187.244 164.263C191.796 166.509 199.968 170.5 205.377 173.167C210.806 175.834 215.321 178 215.435 178C215.987 178 215.454 177.579 214.063 176.897C213.187 176.496 207.473 173.688 201.339 170.68C183.891 162.117 165.662 153.173 160.862 150.827C156.671 148.782 155.833 148.32 156.347 148.32C156.671 148.32 158.652 145.633 159.814 143.608C161.205 141.181 163.719 135.807 165.262 131.916C165.986 130.131 166.614 128.667 166.672 128.667C166.957 128.667 172.462 133.701 179.243 140.118C195.053 155.098 208.692 163.822 215.092 163.06C218.578 162.639 221.53 159.35 223.245 153.996C223.816 152.171 224.578 148.08 224.578 146.816C224.578 146.134 224.578 146.134 225.568 146.074C226.483 146.014 226.559 145.974 226.692 145.412C227.245 143.146 229.054 127.705 229.664 120.044C230.064 114.87 230.121 104.142 229.759 101.494C229.073 96.5612 227.778 91.628 225.588 85.8525C223.149 79.3149 217.911 68.4457 217.911 69.8896ZM135.242 91.8686C138.861 92.2095 139.471 92.4301 145.471 95.3981C148.595 96.9423 151.338 98.2458 151.585 98.3059C152.214 98.4864 152.1 98.0653 151.433 97.7845C150.442 97.3634 150.519 97.1027 151.585 97.2431C152.881 97.4035 154.252 98.0252 156.1 99.3086C158.024 100.632 159.928 102.638 162.157 105.666C163.567 107.571 164.329 108.393 166.005 109.777C168.976 112.243 171.776 114.79 174.196 117.237C176.691 119.764 177.929 120.766 180.558 122.451C183.662 124.416 191.301 128.266 195.282 129.851C196.063 130.151 196.501 130.974 196.215 131.595C195.815 132.538 195.968 133.641 196.71 135.165C197.682 137.09 200.463 140.038 202.596 141.342C207.092 144.109 213.53 145.773 220.921 146.054C224.711 146.195 224.368 145.854 223.911 148.922C222.921 155.72 220.445 160.353 216.882 162.077C210.882 164.965 196.291 155.941 177.148 137.511C174.329 134.784 168.653 129.65 163.243 124.937L159.338 121.508L157.414 121.388C154.843 121.227 151.166 120.425 148.728 119.503C146.957 118.821 146.595 118.741 144.957 118.761C143.966 118.761 141.642 118.981 139.814 119.242C134.423 119.984 132.347 119.583 132.575 117.838C132.651 117.157 133.204 116.796 134.004 116.896C135.128 117.016 138.747 116.515 139.528 116.114C141.337 115.211 141.68 112.644 140.118 111.642C139.395 111.181 138.08 110.699 136.309 110.278C135.28 110.017 133.909 109.937 130.67 109.937C126.88 109.917 126.308 109.877 125.851 109.556C125.185 109.115 125.204 108.634 125.87 107.952C126.366 107.45 126.632 107.39 129.07 107.11C130.594 106.929 133.585 106.809 136.137 106.809C138.937 106.809 140.595 106.729 140.671 106.608C140.861 106.287 139.337 105.666 136.747 105.004C133.928 104.302 131.775 104.001 129.413 104.001C127.642 104.001 126.575 103.761 126.423 103.339C126.289 102.898 126.67 101.835 127.204 101.234C128.309 99.9904 132.042 99.7699 136.823 100.672C141.052 101.454 142.099 101.374 142.099 100.251C142.099 99.2084 139.452 96.9222 137.394 96.2003C136.156 95.7591 133.642 95.3781 131.985 95.3781C130.347 95.3781 129.432 94.3954 129.909 93.0919C130.232 92.1694 131.794 91.5277 133.337 91.6881C133.699 91.7283 134.556 91.8085 135.242 91.8686Z" fill="black"/>
<path d="M5.90493 75.1638C5.90493 75.3042 6.2097 76.4071 6.59067 77.6304C7.42879 80.3978 13.1432 98.7672 15.5243 106.408C20.1339 121.207 21.1435 124.456 21.1435 124.556C21.1435 124.617 16.3814 124.657 10.5717 124.657C3.65725 124.657 0 124.717 0 124.857C0 124.998 3.6763 125.058 10.6479 125.058H21.2959L21.7721 126.502C22.3435 128.246 33.1629 148.22 33.5248 148.22C33.6772 148.22 33.8867 147.859 34.0391 147.418C34.3058 146.536 34.5153 147.197 28.6294 129.41C28.058 127.665 27.6198 126.181 27.677 126.141C27.7532 126.04 29.4294 125.96 52.573 124.757C60.1732 124.356 68.7068 123.915 71.5259 123.774C74.3641 123.634 76.726 123.554 76.8213 123.594C77.1641 123.814 93.336 142.104 93.336 142.304C93.336 142.404 93.1075 142.505 92.8217 142.505C92.517 142.505 90.2312 142.645 87.7168 142.805C85.2025 142.966 73.8117 143.688 62.3828 144.41C50.9539 145.112 41.0298 145.753 40.2869 145.794C39.5631 145.854 37.9821 145.954 36.8011 146.034C34.7058 146.154 33.62 146.515 35.3153 146.515C36.0391 146.515 86.9168 143.347 91.5265 143.006L93.0503 142.906L90.8788 144.109L66.0591 145.814C52.4015 146.736 39.6773 147.618 37.7725 147.739C35.7534 147.879 34.2867 148.06 34.2867 148.18C34.2867 148.421 35.7725 148.34 46.1918 147.618C50.2872 147.338 62.0399 146.536 72.3069 145.834L91.0122 144.53L92.3646 143.808C94.5932 142.645 94.9361 143.227 85.812 132.979C81.5262 128.166 77.7927 123.955 77.5261 123.634L77.0499 123.032L69.4306 123.454C60.7065 123.915 30.8961 125.419 28.8008 125.499L27.3913 125.559L22.9721 112.123C20.5339 104.723 17.8481 96.5613 16.991 93.9543L15.4481 89.2416L10.8194 82.0824C8.26691 78.1518 6.13351 74.9432 6.05732 74.9231C5.96208 74.9231 5.90493 75.0234 5.90493 75.1638ZM11.3527 83.7468C13.2575 86.6747 14.8957 89.2617 15.029 89.5224C15.1433 89.763 16.0576 92.4302 17.0291 95.4382C18.7053 100.552 29.6009 133.721 32.5533 142.665C33.6391 145.974 33.8676 146.836 33.6962 147.157C33.5819 147.378 33.4295 147.478 33.3533 147.398C33.2581 147.298 30.8009 142.785 27.8484 137.351C23.2578 128.848 22.0768 126.482 21.8292 125.198C21.7911 125.058 21.7149 124.817 21.6578 124.657C21.5435 124.336 19.4482 117.638 14.4957 101.695C12.7242 95.9597 10.267 88.0785 9.06693 84.188C7.84785 80.2976 6.85734 77.0489 6.85734 76.9887C6.85734 76.8082 7.52403 77.8109 11.3527 83.7468Z" fill="black"/>
<path d="M107.146 123.674C103.584 124.175 102.955 125.158 105.87 125.679C108.27 126.101 115.432 125.82 117.718 125.238C118.042 125.138 118.042 125.138 118.156 133.34L118.251 139.537L117.832 139.416C117.622 139.356 116.365 139.196 115.07 139.075C112.441 138.835 107.908 139.075 106.136 139.557C105.584 139.717 105.108 139.777 105.07 139.717C105.032 139.657 104.898 136.529 104.765 132.779C104.651 129.028 104.498 125.84 104.46 125.679C104.403 125.499 104.308 125.459 104.213 125.579C104.117 125.679 104.117 127.484 104.213 129.67C104.289 131.816 104.555 138.354 104.765 144.209C105.432 162.759 105.489 163.722 105.832 164.263C106.003 164.524 106.613 165.005 107.203 165.306C108.232 165.847 108.422 165.867 110.956 165.867C114.708 165.867 117.68 165.186 118.651 164.083L119.089 163.601L118.88 152.09C118.765 145.773 118.632 137.07 118.556 132.779C118.499 128.467 118.422 124.757 118.365 124.516C118.308 124.216 118.061 123.995 117.565 123.835C116.67 123.534 108.956 123.413 107.146 123.674ZM116.137 124.075C117.908 124.336 118.213 124.556 117.222 124.837C114.975 125.519 106.384 125.659 105.051 125.058L104.479 124.797L105.336 124.536C107.279 123.915 113.26 123.654 116.137 124.075ZM117.68 139.797C120.365 140.72 108.765 141.582 105.813 140.68L105.051 140.439L105.66 140.178C105.984 140.038 106.803 139.817 107.47 139.717C108.803 139.497 116.994 139.557 117.68 139.797ZM118.289 142.745C118.289 143.888 118.384 149.002 118.48 154.136L118.67 163.461L118.194 163.902C116.651 165.326 109.794 166.048 107.622 165.025C105.851 164.183 105.965 164.644 105.622 156.141C105.47 152.01 105.279 146.876 105.222 144.771L105.089 140.9L105.736 141.121C107.413 141.682 115.527 141.522 117.47 140.9C117.775 140.8 118.061 140.72 118.156 140.72C118.232 140.7 118.289 141.622 118.289 142.745Z" fill="black"/>
<path d="M116.499 159.651C114.651 160.192 112.213 160.413 109.413 160.292C106.346 160.172 105.927 160.433 108.67 160.734C111.508 161.034 117.642 160.272 117.87 159.591C117.965 159.29 117.699 159.31 116.499 159.651Z" fill="black"/>
<path d="M46.7633 125.459C44.0394 125.659 39.4488 125.98 36.5725 126.161C33.6962 126.361 31.2771 126.562 31.2009 126.642C31.1247 126.702 33.4105 130.914 36.2868 135.987L41.525 145.212L42.6107 145.152C44.4394 145.072 64.7447 143.728 66.3448 143.588C67.1638 143.507 67.7924 143.367 67.7734 143.267C67.7353 143.167 64.8019 139.035 61.2399 134.082L54.7635 125.078L53.2396 125.098C52.4015 125.098 49.4871 125.278 46.7633 125.459ZM56.7064 128.587C57.9445 130.312 60.7827 134.243 63.0113 137.331C65.24 140.419 67.0496 142.986 67.0115 143.006C66.8972 143.126 52.0396 144.169 44.0775 144.63L41.7726 144.771L36.8011 135.987C34.0581 131.174 31.8104 127.164 31.8104 127.083C31.8104 127.003 36.3249 126.642 41.8679 126.281C47.3918 125.92 52.0015 125.599 52.0967 125.559C52.211 125.519 52.7825 125.479 53.373 125.479L54.4587 125.459L56.7064 128.587Z" fill="black"/>
<path d="M82.6691 125.659C82.6691 125.8 85.812 125.86 91.717 125.86C97.6219 125.86 100.765 125.8 100.765 125.659C100.765 125.519 97.6219 125.459 91.717 125.459C85.812 125.459 82.6691 125.519 82.6691 125.659Z" fill="black"/>
<path d="M50.7824 150.366C48.8967 152.431 48.2681 153.334 48.6681 153.334C48.7062 153.334 49.1633 152.852 49.6586 152.271C50.1539 151.709 51.1444 150.606 51.8301 149.844L53.1063 148.441L66.4019 148.701C84.4215 149.022 97.0124 149.303 97.0695 149.363C97.0885 149.403 96.3838 150.767 95.5075 152.431C93.8885 155.5 93.7742 155.74 94.0789 155.74C94.2885 155.74 97.7933 149.143 97.66 149.002C97.5648 148.882 87.7549 148.661 69.7163 148.34C63.278 148.22 56.8779 148.08 55.4873 148.02L52.992 147.919L50.7824 150.366Z" fill="black"/>
<path d="M95.6599 154.276C94.517 156.462 92.7074 159.932 91.6217 161.997L89.6788 165.767H65.6971C49.7729 165.767 41.7155 165.827 41.7155 165.968C41.7155 166.108 49.7919 166.148 65.8495 166.128L89.9836 166.068L91.2979 163.561C92.0217 162.178 93.8313 158.688 95.3551 155.82C96.8599 152.933 98.0981 150.526 98.0981 150.446C98.0981 149.864 97.4504 150.887 95.6599 154.276Z" fill="black"/>
<path d="M47.3537 154.056C47.1633 154.577 47.2204 156.542 47.4299 156.542C47.5442 156.542 47.6204 156.041 47.6204 155.44C47.6204 154.637 47.6966 154.296 47.9061 154.216C48.3062 154.036 48.2681 153.735 47.8299 153.735C47.6395 153.735 47.4109 153.875 47.3537 154.056Z" fill="black"/>
<path d="M49.3348 154.116C49.0872 154.617 49.0872 156.482 49.3348 156.643C49.4491 156.723 49.5253 156.342 49.5253 155.66C49.5253 154.958 49.6205 154.457 49.811 154.256C50.1729 153.895 50.1729 153.735 49.811 153.735C49.6586 153.735 49.4491 153.915 49.3348 154.116Z" fill="black"/>
<path d="M51.4872 154.276C51.2586 154.898 51.3158 156.603 51.5824 156.683C51.7539 156.743 51.811 156.462 51.811 155.62C51.811 154.778 51.8872 154.417 52.1539 154.216C52.4587 153.975 52.4396 153.955 52.0396 153.935C51.811 153.935 51.5443 154.096 51.4872 154.276Z" fill="black"/>
<path d="M53.5635 154.176C53.2968 154.457 53.2587 156.743 53.5254 156.743C53.6397 156.743 53.7159 156.242 53.7159 155.64C53.7159 154.838 53.7921 154.497 54.0016 154.417C54.154 154.336 54.2873 154.216 54.2873 154.116C54.2873 153.855 53.8302 153.895 53.5635 154.176Z" fill="black"/>
<path d="M55.4302 154.457C55.1826 155.119 55.1826 156.683 55.4302 156.843C55.5445 156.923 55.6207 156.623 55.6207 156.101C55.6207 155.62 55.754 154.978 55.9064 154.657C56.2683 153.955 56.2683 153.935 55.9064 153.935C55.735 153.935 55.5254 154.176 55.4302 154.457Z" fill="black"/>
<path d="M57.5064 154.256C57.2017 154.657 57.1636 156.783 57.4874 156.883C57.6588 156.943 57.716 156.663 57.716 155.82C57.716 154.998 57.8112 154.617 58.0207 154.437C58.3064 154.216 58.3064 154.196 58.0398 154.076C57.8874 154.016 57.6398 154.096 57.5064 154.256Z" fill="black"/>
<path d="M59.6208 154.517C59.3731 155.018 59.3731 156.943 59.6208 156.943C59.735 156.943 59.8112 156.502 59.8112 155.961C59.8112 155.339 59.9255 154.858 60.097 154.657C60.4589 154.296 60.4589 154.136 60.097 154.136C59.9446 154.136 59.735 154.316 59.6208 154.517Z" fill="black"/>
<path d="M61.6971 154.457C61.3923 154.838 61.2018 157.144 61.4875 157.144C61.5828 157.144 61.7161 156.623 61.7542 156.001C61.8113 155.379 61.9447 154.818 62.059 154.778C62.3256 154.697 62.3637 154.136 62.1161 154.136C62.0209 154.136 61.8494 154.276 61.6971 154.457Z" fill="black"/>
<path d="M63.6209 154.517C63.3733 155.018 63.3733 157.144 63.6209 157.144C63.7352 157.144 63.8114 156.663 63.8114 156.061C63.8114 155.359 63.9066 154.898 64.0971 154.738C64.2495 154.597 64.3257 154.417 64.2685 154.316C64.0971 154.016 63.8304 154.116 63.6209 154.517Z" fill="black"/>
<path d="M71.8306 154.316C71.4877 154.557 71.2973 156.823 71.602 157.024C71.7354 157.124 71.8116 156.883 71.8116 156.302C71.8116 155.82 71.9449 155.179 72.0973 154.858C72.2497 154.557 72.383 154.256 72.383 154.216C72.383 154.076 72.1163 154.136 71.8306 154.316Z" fill="black"/>
<path d="M65.5257 154.717C65.2781 155.219 65.2781 157.144 65.5257 157.144C65.64 157.144 65.7162 156.703 65.7162 156.161C65.7162 155.54 65.8305 155.058 66.0019 154.858C66.3638 154.497 66.3638 154.336 66.0019 154.336C65.8495 154.336 65.64 154.517 65.5257 154.717Z" fill="black"/>
<path d="M67.8115 154.637C67.5258 154.998 67.4496 157.124 67.7163 157.144C67.8306 157.144 67.9258 156.643 67.9639 156.041C68.002 155.299 68.1163 154.878 68.2877 154.798C68.4401 154.738 68.5163 154.617 68.4592 154.517C68.3068 154.256 68.0782 154.296 67.8115 154.637Z" fill="black"/>
<path d="M73.5831 154.677C73.3545 155.299 73.4117 157.004 73.6783 157.084C73.8498 157.144 73.9069 156.863 73.9069 156.021C73.9069 155.179 73.9831 154.818 74.2498 154.617C74.5545 154.377 74.5355 154.356 74.1355 154.336C73.9069 154.336 73.6402 154.497 73.5831 154.677Z" fill="black"/>
<path d="M75.8117 154.717C75.5641 155.219 75.5641 157.344 75.8117 157.344C75.926 157.344 76.0022 156.863 76.0022 156.262C76.0022 155.56 76.0975 155.098 76.2879 154.938C76.6499 154.617 76.6499 154.336 76.2879 154.336C76.1356 154.336 75.926 154.517 75.8117 154.717Z" fill="black"/>
<path d="M85.7168 154.717C85.4692 155.219 85.4692 157.344 85.7168 157.344C85.8311 157.344 85.9073 156.863 85.9073 156.262C85.9073 155.56 86.0025 155.098 86.193 154.938C86.3454 154.798 86.4216 154.617 86.3645 154.517C86.193 154.216 85.9263 154.316 85.7168 154.717Z" fill="black"/>
<path d="M69.6401 154.858C69.4496 155.379 69.5068 157.344 69.7163 157.344C69.8306 157.344 69.9068 156.843 69.9068 156.242C69.9068 155.439 69.983 155.098 70.1925 155.018C70.5925 154.838 70.5544 154.537 70.1163 154.537C69.9258 154.537 69.6973 154.677 69.6401 154.858Z" fill="black"/>
<path d="M77.7165 154.918C77.4879 155.399 77.4689 157.344 77.6975 157.344C77.7927 157.344 77.907 156.823 77.9451 156.201C78.0022 155.58 78.1356 155.018 78.2499 154.978C78.5737 154.878 78.5356 154.537 78.1927 154.537C78.0403 154.537 77.8308 154.717 77.7165 154.918Z" fill="black"/>
<path d="M79.6214 155.058C79.3928 155.7 79.3738 157.344 79.6023 157.344C79.6976 157.344 79.8119 156.823 79.85 156.201C79.9071 155.58 80.0404 155.018 80.1547 154.978C80.4786 154.878 80.4405 154.537 80.0976 154.537C79.9262 154.537 79.7166 154.778 79.6214 155.058Z" fill="black"/>
<path d="M81.7166 154.918C81.469 155.419 81.469 157.545 81.7166 157.545C81.8309 157.545 81.9071 157.124 81.9071 156.582C81.9071 156.061 82.0404 155.439 82.1928 155.219C82.4595 154.818 82.4023 154.537 82.0785 154.537C81.9833 154.537 81.8309 154.717 81.7166 154.918Z" fill="black"/>
<path d="M87.6216 154.918C87.374 155.419 87.374 157.344 87.6216 157.344C87.7359 157.344 87.8121 156.903 87.8121 156.362C87.8121 155.74 87.9264 155.259 88.0978 155.058C88.4597 154.697 88.4597 154.537 88.0978 154.537C87.9454 154.537 87.7359 154.717 87.6216 154.918Z" fill="black"/>
<path d="M89.9074 154.838C89.6216 155.199 89.5454 157.324 89.8121 157.344C89.9264 157.344 90.0216 156.883 90.0597 156.302C90.0978 155.64 90.2312 155.179 90.4026 155.078C90.555 154.978 90.6312 154.838 90.574 154.717C90.4026 154.457 90.174 154.497 89.9074 154.838Z" fill="black"/>
<path d="M83.6215 155.259C83.3929 155.901 83.3739 157.545 83.6024 157.545C83.6977 157.545 83.812 157.024 83.8501 156.402C83.9072 155.78 84.0406 155.219 84.1548 155.179C84.4787 155.078 84.4406 154.738 84.0977 154.738C83.9263 154.738 83.7167 154.978 83.6215 155.259Z" fill="black"/>
<path d="M91.736 155.058C91.5455 155.58 91.6026 157.545 91.8122 157.545C91.9265 157.545 92.0026 157.044 92.0026 156.442C92.0026 155.64 92.0788 155.299 92.2884 155.219C92.6884 155.038 92.6503 154.738 92.2122 154.738C92.0217 154.738 91.7931 154.878 91.736 155.058Z" fill="black"/>
<path d="M43.1441 159.47C39.4297 163.02 39.5249 162.919 39.6583 163.06C39.7154 163.14 40.1916 163.22 40.6869 163.26C43.0679 163.481 82.8786 165.025 82.9929 164.905C83.05 164.825 83.0691 164.724 83.031 164.684C82.9929 164.644 73.9069 164.243 62.859 163.782C51.811 163.321 42.2298 162.899 41.5821 162.839L40.4012 162.739L43.4489 159.811C45.1061 158.207 46.4204 156.823 46.3632 156.723C46.3061 156.623 46.2489 156.542 46.2299 156.542C46.2108 156.542 44.8203 157.866 43.1441 159.47Z" fill="black"/>
<path d="M90.6884 161.135L88.593 164.323L86.0977 164.464C84.7453 164.544 83.5643 164.704 83.4881 164.825C83.4119 164.965 84.231 164.985 86.1168 164.885C87.6216 164.805 88.8597 164.724 88.8788 164.704C89.4502 163.902 93.1456 158.147 93.1456 158.066C93.1456 157.585 92.517 158.367 90.6884 161.135Z" fill="black"/>
<path d="M219.911 160.553C219.702 160.894 219.568 170.56 219.759 171.442C219.835 171.863 220.006 172.184 220.102 172.144C220.216 172.104 220.254 171.984 220.216 171.884C220.044 171.422 220.006 165.105 220.159 162.96C220.311 160.794 220.235 159.992 219.911 160.553Z" fill="black"/>
</svg>
