<svg width="18" height="18" viewBox="0 0 18 18" fill="none" xmlns="http://www.w3.org/2000/svg">
<path d="M9 0C13.968 0 18 4.032 18 9C18 13.968 13.968 18 9 18C4.032 18 0 13.968 0 9C0 4.032 4.032 0 9 0ZM9 1.5C4.86042 1.5 1.5 4.86042 1.5 9C1.5 13.1396 4.86042 16.5 9 16.5C13.1396 16.5 16.5 13.1396 16.5 9C16.5 4.86042 13.1396 1.5 9 1.5ZM9 12.0753C9.5799 12.0753 10.05 12.5454 10.05 13.1253C10.05 13.7052 9.5799 14.1753 9 14.1753C8.4201 14.1753 7.95 13.7052 7.95 13.1253C7.95 12.5454 8.4201 12.0753 9 12.0753ZM8.9505 3.7425C10.4886 3.7425 11.7344 5.00109 11.7344 6.555C11.7344 7.17375 11.4838 7.73625 11.0871 8.13703L10.4608 8.78391C10.0882 9.16548 9.81956 9.49654 9.70621 10.0746C9.69599 10.1268 9.6885 10.2042 9.68374 10.3071C9.66656 10.6775 9.36121 10.9691 8.99035 10.9691H8.9834C8.59882 10.9691 8.28707 10.6573 8.28707 10.2728L8.28707 10.2709C8.28759 10.0758 8.29366 9.94805 8.30529 9.88753C8.41295 9.32722 8.68606 8.8244 9.06882 8.43234L9.93182 7.54641C10.1788 7.29792 10.3424 6.94172 10.3424 6.555C10.3424 5.78156 9.71607 5.14875 8.9505 5.14875C8.46404 5.14875 8.03378 5.40426 7.78472 5.789C7.73545 5.8651 7.67349 5.9864 7.59882 6.1529C7.45172 6.4809 7.07911 6.64302 6.73885 6.52706L6.71218 6.51797C6.36492 6.39962 6.17935 6.02216 6.2977 5.6749C6.30202 5.6622 6.30673 5.64964 6.3118 5.63722C6.36138 5.51627 6.409 5.40936 6.45465 5.3165C6.93269 4.34404 7.83277 3.7425 8.9505 3.7425Z" fill="#6C639E"/>
</svg>
