<svg width="16" height="16" viewBox="0 0 16 16" fill="none" xmlns="http://www.w3.org/2000/svg">
<path d="M8 0C12.416 0 16 3.584 16 8C16 12.416 12.416 16 8 16C3.584 16 0 12.416 0 8C0 3.584 3.584 0 8 0ZM8 1.33333C4.32037 1.33333 1.33333 4.32037 1.33333 8C1.33333 11.6796 4.32037 14.6667 8 14.6667C11.6796 14.6667 14.6667 11.6796 14.6667 8C14.6667 4.32037 11.6796 1.33333 8 1.33333ZM8 10.7336C8.51547 10.7336 8.93333 11.1515 8.93333 11.6669C8.93333 12.1824 8.51547 12.6003 8 12.6003C7.48453 12.6003 7.06667 12.1824 7.06667 11.6669C7.06667 11.1515 7.48453 10.7336 8 10.7336ZM7.956 3.32667C9.32319 3.32667 10.4306 4.44542 10.4306 5.82667C10.4306 6.37667 10.2078 6.87667 9.85522 7.23292L9.29845 7.80792C8.96732 8.1471 8.7285 8.44137 8.62775 8.95523C8.61866 9.00156 8.612 9.07044 8.60777 9.16185C8.5925 9.49115 8.32108 9.7503 7.99142 9.7503H7.98524C7.6434 9.75031 7.36628 9.4732 7.36628 9.13135L7.36628 9.12971C7.36674 8.95631 7.37214 8.84271 7.38248 8.78891C7.47818 8.29086 7.72095 7.84391 8.06117 7.49542L8.82828 6.70792C9.0478 6.48704 9.19328 6.17042 9.19328 5.82667C9.19328 5.13917 8.6365 4.57667 7.956 4.57667C7.52359 4.57667 7.14114 4.80378 6.91975 5.14577C6.87596 5.21342 6.82088 5.32124 6.75451 5.46924C6.62375 5.7608 6.29254 5.90491 5.99009 5.80183L5.96638 5.79375C5.6577 5.68855 5.49275 5.35303 5.59795 5.04435C5.6018 5.03307 5.60599 5.0219 5.61049 5.01086C5.65456 4.90335 5.69689 4.80832 5.73746 4.72578C6.16239 3.86137 6.96246 3.32667 7.956 3.32667Z" fill="#9DA4D8"/>
</svg>
