<svg width="22" height="22" viewBox="0 0 22 22" fill="none" xmlns="http://www.w3.org/2000/svg">
<path d="M11 0C17.0751 0 22 4.92486 22 11C22 17.0751 17.0751 22 11 22C4.92486 22 0 17.0751 0 11C0 4.92486 4.92486 0 11 0ZM11 1.83333C5.93739 1.83333 1.83333 5.93739 1.83333 11C1.83333 16.0626 5.93739 20.1667 11 20.1667C16.0626 20.1667 20.1667 16.0626 20.1667 11C20.1667 5.93739 16.0626 1.83333 11 1.83333ZM11.0675 9.16667C11.2853 9.16667 11.422 9.20068 11.5415 9.26466C11.661 9.32855 11.7548 9.42233 11.8187 9.54186C11.8827 9.6613 11.9167 9.79807 11.9167 10.0159V15.6508C11.9167 15.8686 11.8827 16.0054 11.8187 16.1248C11.7548 16.2443 11.661 16.3381 11.5415 16.402C11.422 16.466 11.2853 16.5 11.0675 16.5H10.9325C10.7147 16.5 10.578 16.466 10.4585 16.402C10.339 16.3381 10.2452 16.2443 10.1813 16.1248C10.1173 16.0054 10.0833 15.8686 10.0833 15.6508V10.0159C10.0833 9.79807 10.1173 9.6613 10.1813 9.54186C10.2452 9.42233 10.339 9.32855 10.4585 9.26466C10.578 9.20068 10.7147 9.16667 10.9325 9.16667H11.0675ZM11 5.13333C11.7088 5.13333 12.2833 5.7079 12.2833 6.41667C12.2833 7.12543 11.7088 7.7 11 7.7C10.2912 7.7 9.71667 7.12543 9.71667 6.41667C9.71667 5.7079 10.2912 5.13333 11 5.13333Z" fill="#787FB2"/>
</svg>
