<svg width="22" height="22" viewBox="0 0 22 22" fill="none" xmlns="http://www.w3.org/2000/svg">
<path d="M0.000477437 2.10017C-0.0173684 1.49319 0.467285 0.980972 1.08291 0.956176C1.69855 0.931388 2.21208 1.40334 2.22993 2.01033L2.29012 4.03172C2.42676 3.87009 2.59007 3.70168 2.73733 3.54604C4.85069 1.3125 7.67397 0.124165 10.5251 0.00921764C13.3762 -0.105649 16.2626 0.852573 18.502 2.91069C20.7414 4.9688 21.9127 7.73966 21.9953 10.5507C22.0778 13.3618 21.0719 16.2204 18.9586 18.454C16.8452 20.6875 14.0219 21.8758 11.1708 21.9908C8.31968 22.1057 5.43334 21.1474 3.19392 19.0893C2.74597 18.6776 2.72554 17.9817 3.14826 17.535C3.57097 17.0882 4.27677 17.0598 4.72472 17.4715C6.51669 19.1183 8.82221 19.8846 11.1063 19.7926C13.3903 19.7006 15.6454 18.7504 17.3365 16.9632C19.0275 15.1759 19.8319 12.8926 19.7659 10.6406C19.6996 8.3886 18.7632 6.17543 16.9712 4.52855C15.1792 2.88167 12.8737 2.11535 10.5897 2.20736C8.30564 2.29949 6.05054 3.24958 4.35946 5.03683C4.21395 5.19061 4.07511 5.34794 3.9429 5.50849L5.94929 5.42855C6.56492 5.40376 7.07846 5.87572 7.09631 6.48271C7.11413 7.08966 6.62948 7.60188 6.01388 7.6267L1.28447 7.8173C0.668816 7.84212 0.155284 7.37016 0.137453 6.76315L0.000477437 2.10017Z" fill="#787FB2"/>
<path d="M12.1856 6.36272C14.0773 6.36272 15.6108 7.87406 15.6108 9.73835C15.6108 11.6027 14.0773 13.1141 12.1856 13.1141L9.88707 13.1138V14.4069H11.4175C11.8401 14.4069 12.1827 14.7445 12.1827 15.161C12.1827 15.5775 11.8401 15.9152 11.4175 15.9152H9.88707V16.5688C9.88707 17.0408 9.49876 17.4235 9.01984 17.4235C8.54089 17.4235 8.15261 17.0408 8.15261 16.5688L8.15159 15.9152H7.3364C6.91379 15.9152 6.5712 15.5775 6.5712 15.161C6.5712 14.7445 6.91379 14.4069 7.3364 14.4069H8.15159V13.1138L7.44571 13.1141C6.96273 13.1141 6.5712 12.7282 6.5712 12.2522C6.5712 11.7762 6.96273 11.3903 7.44571 11.3903H8.15159L8.15261 7.21741C8.15261 6.74538 8.54089 6.36272 9.01984 6.36272H12.1856ZM12.2191 7.94282H9.88707V11.3903H12.2191C13.1851 11.3903 13.9681 10.6186 13.9681 9.66656C13.9681 8.71457 13.1851 7.94282 12.2191 7.94282Z" fill="#787FB2"/>
</svg>
