<svg width="24" height="22" viewBox="0 0 24 22" fill="none" xmlns="http://www.w3.org/2000/svg">
<path fill-rule="evenodd" clip-rule="evenodd" d="M0.0402598 10.2315C0.0402598 4.43992 5.55881 0 12.0201 0C18.4814 0 24 4.43992 24 10.2315C24 16.023 18.4814 20.4629 12.0201 20.4629C10.5874 20.4629 9.21023 20.2482 7.93209 19.8525C6.42455 21.2323 4.23413 21.8956 1.55466 21.9988C0.463163 22.0409 -0.324661 20.9275 0.132376 19.9309C0.780748 18.5072 1.61849 16.875 1.71783 15.4514C0.656869 13.9362 0.0402598 12.1482 0.0402598 10.2315ZM12.0201 2.04651C6.40135 2.04651 2.12706 5.8519 2.12706 10.2315C2.12706 11.8042 2.66403 13.2796 3.61062 14.5298C3.7442 14.7062 3.81632 14.9201 3.81632 15.1398C3.81632 16.8116 3.13679 18.3889 2.44485 19.8858C4.59015 19.6624 5.99753 18.9887 6.84617 18.0093C7.1312 17.6804 7.59605 17.5622 8.0081 17.714C9.23118 18.1644 10.5879 18.4164 12.0201 18.4164C17.6389 18.4164 21.9132 14.611 21.9132 10.2315C21.9132 5.8519 17.6389 2.04651 12.0201 2.04651Z" fill="#AEAEAE"/>
</svg>
