<svg width="80" height="80" viewBox="0 0 96 96" fill="none" xmlns="http://www.w3.org/2000/svg">
<g filter="url(#filter0_d_674_6244)">
<rect x="8" y="6" width="80" height="80" rx="10" fill="white"/>
</g>
<path fill-rule="evenodd" clip-rule="evenodd" d="M53.6863 37C53.9124 37 54.1293 37.0898 54.2892 37.2497C54.4491 37.4096 54.5389 37.6265 54.5389 37.8527V39.4611H56.1473C56.3735 39.4611 56.5904 39.5509 56.7503 39.7108C56.9102 39.8707 57 40.0876 57 40.3137C57 40.5399 56.9102 40.7568 56.7503 40.9167C56.5904 41.0766 56.3735 41.1664 56.1473 41.1664H54.5389V42.7748C54.5389 43.0009 54.4491 43.2178 54.2892 43.3777C54.1293 43.5376 53.9124 43.6275 53.6863 43.6275C53.4601 43.6275 53.2432 43.5376 53.0833 43.3777C52.9234 43.2178 52.8336 43.0009 52.8336 42.7748V41.1664H51.2253C50.9992 41.1664 50.7823 41.0766 50.6224 40.9167C50.4625 40.7568 50.3726 40.5399 50.3726 40.3137C50.3726 40.0876 50.4625 39.8707 50.6224 39.7108C50.7823 39.5509 50.9992 39.4611 51.2253 39.4611H52.8336V37.8527C52.8336 37.6265 52.9234 37.4096 53.0833 37.2497C53.2432 37.0898 53.4601 37 53.6863 37V37ZM45.8792 37.9437H48.1759C48.402 37.9437 48.6189 38.0335 48.7788 38.1934C48.9387 38.3534 49.0285 38.5702 49.0285 38.7964C49.0285 39.0225 48.9387 39.2394 48.7788 39.3993C48.6189 39.5592 48.402 39.649 48.1759 39.649H45.916C44.8407 39.649 44.0857 39.6497 43.4965 39.6978C42.9173 39.7452 42.574 39.8342 42.3089 39.9692C41.7563 40.2508 41.307 40.7001 41.0255 41.2527C40.8904 41.5178 40.8015 41.8609 40.7541 42.4402C40.706 43.0294 40.7053 43.7845 40.7053 44.8598V48.084C40.7053 49.1592 40.706 49.9143 40.7541 50.5035C40.8015 51.0827 40.8904 51.4259 41.0255 51.691C41.307 52.2436 41.7563 52.6929 42.3089 52.9745C42.5741 53.1096 42.9173 53.1985 43.4965 53.2459C44.0857 53.294 44.8408 53.2947 45.916 53.2947H49.1402C50.2155 53.2947 50.9706 53.294 51.5597 53.2459C52.139 53.1985 52.4822 53.1096 52.7473 52.9745C53.2999 52.693 53.7492 52.2436 54.0308 51.691C54.1658 51.4259 54.2548 51.0827 54.3021 50.5035C54.3502 49.9143 54.3509 49.1592 54.3509 48.084V45.8458C54.3509 45.6197 54.4407 45.4028 54.6006 45.2429C54.7605 45.083 54.9774 44.9931 55.2035 44.9931C55.4297 44.9931 55.6466 45.083 55.8065 45.2429C55.9664 45.4028 56.0562 45.6197 56.0562 45.8458V48.1208C56.0563 49.1507 56.0563 49.9756 56.0018 50.6423C55.9458 51.327 55.8283 51.9197 55.5503 52.4652C55.1052 53.3387 54.395 54.0489 53.5215 54.494C52.976 54.772 52.3833 54.8895 51.6986 54.9455C51.0319 55 50.207 55 49.1772 55H45.8792C44.8494 55 44.0244 55 43.3576 54.9455C42.673 54.8895 42.0803 54.772 41.5348 54.494C40.6613 54.0489 39.9511 53.3387 39.506 52.4652C39.228 51.9197 39.1104 51.327 39.0545 50.6423C39 49.9756 39 49.1507 39 48.1208V44.8229C39 43.7931 39 42.9681 39.0545 42.3014C39.1104 41.6167 39.228 41.024 39.506 40.4785C39.9511 39.605 40.6613 38.8948 41.5348 38.4497C42.0803 38.1717 42.673 38.0542 43.3576 37.9982C44.0244 37.9437 44.8493 37.9437 45.8792 37.9437V37.9437ZM47.5281 44.3884C46.3774 44.3884 45.4447 45.3212 45.4447 46.4719C45.4447 47.6225 46.3774 48.5553 47.5281 48.5553C48.6787 48.5553 49.6115 47.6225 49.6115 46.4719C49.6115 45.3212 48.6787 44.3885 47.5281 44.3885V44.3884ZM43.7394 46.4719C43.7394 44.3794 45.4356 42.6832 47.5281 42.6832C49.6206 42.6832 51.3168 44.3794 51.3168 46.4719C51.3168 48.5643 49.6206 50.2606 47.5281 50.2606C45.4356 50.2606 43.7394 48.5643 43.7394 46.4719Z" fill="#686868"/>
<defs>
<filter id="filter0_d_674_6244" x="0" y="0" width="96" height="96" filterUnits="userSpaceOnUse" color-interpolation-filters="sRGB">
<feFlood flood-opacity="0" result="BackgroundImageFix"/>
<feColorMatrix in="SourceAlpha" type="matrix" values="0 0 0 0 0 0 0 0 0 0 0 0 0 0 0 0 0 0 127 0" result="hardAlpha"/>
<feOffset dy="2"/>
<feGaussianBlur stdDeviation="4"/>
<feComposite in2="hardAlpha" operator="out"/>
<feColorMatrix type="matrix" values="0 0 0 0 0 0 0 0 0 0 0 0 0 0 0 0 0 0 0.1 0"/>
<feBlend mode="normal" in2="BackgroundImageFix" result="effect1_dropShadow_674_6244"/>
<feBlend mode="normal" in="SourceGraphic" in2="effect1_dropShadow_674_6244" result="shape"/>
</filter>
</defs>
</svg>
