<svg width="40" height="40" viewBox="0 0 40 40" fill="none" xmlns="http://www.w3.org/2000/svg">
<path fill-rule="evenodd" clip-rule="evenodd" d="M20 40C31.0457 40 40 31.0457 40 20C40 8.95431 31.0457 0 20 0C8.95431 0 0 8.95431 0 20C0 31.0457 8.95431 40 20 40Z" fill="#001C3D" fill-opacity="0.08"/>
<path d="M22.85 15.9498C22.85 14.375 21.5748 13.0998 20 13.0998C18.4252 13.0998 17.15 14.375 17.15 15.9498C17.15 17.5246 18.4252 18.7998 20 18.7998C21.5748 18.7998 22.85 17.5246 22.85 15.9498ZM24.65 15.9498C24.65 18.5187 22.5689 20.5998 20 20.5998C17.431 20.5998 15.35 18.5187 15.35 15.9498C15.35 13.3809 17.431 11.2998 20 11.2998C22.5689 11.2998 24.65 13.3809 24.65 15.9498ZM13.9 26.4284C13.9 27.1972 13.8092 27.0998 14.2353 27.0998H25.7647C26.1907 27.0998 26.1 27.1972 26.1 26.4284C26.1 24.5358 23.3218 23.3998 20 23.3998C16.6782 23.3998 13.9 24.5358 13.9 26.4284ZM12.1 26.4284C12.1 23.1016 15.7728 21.5998 20 21.5998C24.2272 21.5998 27.9 23.1016 27.9 26.4284C27.9 28.164 27.2144 28.8998 25.7647 28.8998H14.2353C12.7855 28.8998 12.1 28.164 12.1 26.4284Z" fill="#AEB7C2"/>
</svg>
