<svg width="22" height="22" viewBox="0 0 22 22" fill="none" xmlns="http://www.w3.org/2000/svg">
<path d="M13.1159 14.2583L12.382 14.9924C12.186 15.1887 11.8938 15.2533 11.6333 15.1578C10.9034 14.8894 9.99035 14.2078 8.89405 13.1111C7.79874 12.0155 7.11639 11.1021 6.849 10.371C6.75334 10.1106 6.81749 9.81838 7.0134 9.62206L7.74823 8.88798C9.10202 7.53375 9.22581 5.40087 8.03246 3.98522L7.17086 2.96088C6.18746 1.79092 4.41575 1.67303 3.21249 2.69638C2.76499 3.08214 2.42857 3.58043 2.238 4.13976C2.15564 4.38325 2.10245 4.63565 2.07955 4.89167C1.63885 8.16381 3.21645 11.5984 6.81137 15.1945C10.4063 18.7906 13.8388 20.3677 17.1109 19.9269C17.9609 19.8457 18.747 19.4398 19.3055 18.7936C20.3295 17.5909 20.2106 15.8176 19.042 14.8339L18.018 13.971C16.6008 12.7793 14.4696 12.9041 13.1159 14.2583ZM10.3079 11.6971C10.8316 12.2209 11.2883 12.6182 11.6574 12.8888C13.7801 10.7655 17.083 10.5719 19.3062 12.4415L20.3295 13.3038C22.3581 15.0115 22.561 18.0545 20.8181 20.1014C19.9231 21.1371 18.6633 21.7876 17.3778 21.9089C13.3968 22.4452 9.39336 20.6057 5.39751 16.6086C1.40156 12.6113 -0.438163 8.60575 0.0880752 4.71345C0.12507 4.29986 0.210995 3.89212 0.345458 3.49463C0.650871 2.59824 1.19002 1.79968 1.91732 1.17277C3.954 -0.559385 6.99468 -0.356468 8.70084 1.67337L9.56103 2.69605C11.4326 4.91628 11.2409 8.2226 9.16114 10.303C9.38701 10.7164 9.78404 11.173 10.3079 11.6971Z" fill="#787FB2"/>
</svg>
