<svg width="22" height="22" viewBox="0 0 22 22" fill="none" xmlns="http://www.w3.org/2000/svg">
<path d="M14.8649 5.90244C14.8649 3.82696 13.0026 2.14634 10.7027 2.14634C8.40285 2.14634 6.54054 3.82696 6.54054 5.90244C6.54054 7.97791 8.40285 9.65854 10.7027 9.65854C13.0026 9.65854 14.8649 7.97791 14.8649 5.90244ZM17.2432 5.90244C17.2432 9.16331 14.3161 11.8049 10.7027 11.8049C7.08931 11.8049 4.16216 9.16331 4.16216 5.90244C4.16216 2.64157 7.08931 0 10.7027 0C14.3161 0 17.2432 2.64157 17.2432 5.90244ZM2.37838 18.9338C2.37838 19.9462 2.28309 19.8537 2.92051 19.8537H19.0795C19.7169 19.8537 19.6216 19.9462 19.6216 18.9338C19.6216 16.4782 15.6925 15.0244 11 15.0244C6.30749 15.0244 2.37838 16.4782 2.37838 18.9338ZM0 18.9338C0 14.7697 5.11223 12.878 11 12.878C16.8878 12.878 22 14.7697 22 18.9338C22 21.0978 21.0711 22 19.0795 22H2.92051C0.928886 22 0 21.0978 0 18.9338Z" fill="#AEAEAE"/>
</svg>
