<svg width="19" height="22" viewBox="0 0 19 22" fill="none" xmlns="http://www.w3.org/2000/svg">
<path d="M13.9715 10.4093C14.1393 10.2305 14.2307 9.99412 14.2263 9.74986C14.222 9.50559 14.1223 9.27254 13.9482 9.09979C13.7742 8.92704 13.5394 8.82809 13.2933 8.82378C13.0471 8.81947 12.8089 8.91014 12.6289 9.07669L8.23353 13.439L6.37153 11.591C6.28456 11.4983 6.17968 11.424 6.06314 11.3725C5.94661 11.321 5.82081 11.2933 5.69326 11.291C5.5657 11.2888 5.439 11.3121 5.3207 11.3595C5.20241 11.4069 5.09496 11.4775 5.00475 11.567C4.91454 11.6566 4.84342 11.7632 4.79564 11.8806C4.74786 11.998 4.72439 12.1238 4.72665 12.2504C4.7289 12.377 4.75682 12.5018 4.80874 12.6175C4.86066 12.7331 4.93552 12.8372 5.02886 12.9235L7.56219 15.4378C7.74032 15.6144 7.98178 15.7136 8.23353 15.7136C8.48528 15.7136 8.72674 15.6144 8.90486 15.4378L13.9715 10.4093Z" fill="#787FB2"/>
<path fill-rule="evenodd" clip-rule="evenodd" d="M4.75 0C5.00196 0 5.24359 0.0993365 5.42175 0.276157C5.59991 0.452977 5.7 0.692796 5.7 0.942857V1.28229C6.3498 1.25714 7.1098 1.25714 8.00153 1.25714H8.55V0.942857C8.55 0.692796 8.65009 0.452977 8.82825 0.276157C9.00641 0.0993365 9.24804 0 9.5 0C9.75196 0 9.99359 0.0993365 10.1718 0.276157C10.3499 0.452977 10.45 0.692796 10.45 0.942857V1.25714H10.9985C11.8902 1.25714 12.6502 1.25714 13.3 1.28229V0.942857C13.3 0.692796 13.4001 0.452977 13.5782 0.276157C13.7564 0.0993365 13.998 0 14.25 0C14.502 0 14.7436 0.0993365 14.9218 0.276157C15.0999 0.452977 15.2 0.692796 15.2 0.942857V1.51737C15.5002 1.59657 15.7865 1.70091 16.0613 1.8392C17.0743 2.35173 17.8977 3.16939 18.4135 4.17497C18.734 4.79977 18.8708 5.4824 18.9367 6.2744C19 7.04503 19 8.00171 19 9.19851V14.0586C19 15.2554 19 16.2121 18.9367 16.984C18.8708 17.776 18.734 18.4574 18.4135 19.0834C17.8974 20.0885 17.074 20.9057 16.0613 21.4179C15.4305 21.736 14.744 21.8718 13.946 21.9371C13.1683 22 12.2043 22 10.9985 22H8.00153C6.79567 22 5.83173 22 5.054 21.9371C4.256 21.8718 3.56947 21.736 2.93867 21.4179C1.92594 20.9057 1.10255 20.0885 0.586467 19.0834C0.266 18.4574 0.1292 17.776 0.0633333 16.984C-5.96046e-08 16.2121 0 15.2554 0 14.0586V9.19851C0 8.00171 -5.96046e-08 7.04503 0.0633333 6.27314C0.1292 5.48114 0.266 4.79977 0.586467 4.17371C1.10288 3.16841 1.92673 2.35119 2.93993 1.8392C3.21353 1.70091 3.4998 1.59657 3.8 1.51737V0.942857C3.8 0.692796 3.90009 0.452977 4.07825 0.276157C4.25641 0.0993365 4.49804 0 4.75 0ZM10.9567 3.14286C11.9345 3.14286 12.6882 3.14286 13.3 3.17051V3.45714C13.3015 3.70077 13.3979 3.93436 13.5691 4.10896C13.7403 4.28357 13.973 4.38563 14.2183 4.39376C14.4636 4.40189 14.7026 4.31545 14.8851 4.15256C15.0677 3.98967 15.1796 3.76298 15.1975 3.52C15.853 3.85147 16.386 4.38045 16.72 5.03109C16.8821 5.34537 16.986 5.75143 17.043 6.42651C17.0987 7.11291 17.1 7.99292 17.1 9.24V14.0171C17.1 15.2642 17.1 16.1442 17.043 16.8306C16.9873 17.5057 16.8821 17.9118 16.72 18.2261C16.3866 18.8763 15.8546 19.4052 15.2 19.7371C14.8808 19.8981 14.4729 20.0011 13.7927 20.0577C13.1011 20.113 12.2157 20.1143 10.9579 20.1143H8.0446C6.78807 20.1143 5.9014 20.1143 5.2098 20.0577C4.5296 20.0024 4.12047 19.8981 3.8038 19.7371C3.14815 19.4065 2.61474 18.8785 2.28 18.2286C2.11787 17.9118 2.014 17.507 1.957 16.8319C1.90127 16.1442 1.9 15.2655 1.9 14.0171V9.24C1.9 7.99292 1.9 7.11291 1.957 6.42651C2.01273 5.75143 2.11787 5.34537 2.28 5.03109C2.61398 4.38045 3.14697 3.85147 3.80253 3.52C3.82039 3.76298 3.93231 3.98967 4.11485 4.15256C4.29739 4.31545 4.53637 4.40189 4.78171 4.39376C5.02704 4.38563 5.25969 4.28357 5.43088 4.10896C5.60207 3.93436 5.69851 3.70077 5.7 3.45714V3.17051C6.48084 3.14566 7.26212 3.13644 8.04333 3.14286H8.55V3.45714C8.55 3.7072 8.65009 3.94702 8.82825 4.12384C9.00641 4.30066 9.24804 4.4 9.5 4.4C9.75196 4.4 9.99359 4.30066 10.1718 4.12384C10.3499 3.94702 10.45 3.7072 10.45 3.45714V3.14286H10.9567Z" fill="#787FB2"/>
</svg>
