<svg width="16" height="16" viewBox="0 0 16 16" fill="none" xmlns="http://www.w3.org/2000/svg">
<path d="M8 16C3.58172 16 0 12.4183 0 8C0 3.58172 3.58172 0 8 0C12.4183 0 16 3.58172 16 8C16 12.4183 12.4183 16 8 16ZM8 14.6667C11.6819 14.6667 14.6667 11.6819 14.6667 8C14.6667 4.3181 11.6819 1.33333 8 1.33333C4.3181 1.33333 1.33333 4.3181 1.33333 8C1.33333 11.6819 4.3181 14.6667 8 14.6667ZM5.07467 10.7277C4.82356 10.4584 4.83829 10.0365 5.10757 9.78543C5.37685 9.53432 5.7987 9.54906 6.0498 9.81833C7.05422 10.8954 8.74164 10.9544 9.81874 9.94995C9.86416 9.90759 9.90792 9.8639 9.94998 9.81894C10.2015 9.55004 10.6234 9.53596 10.8923 9.78747C11.1612 10.039 11.1752 10.4609 10.9237 10.7298C10.8609 10.7969 10.7957 10.862 10.7281 10.9251C9.11241 12.4317 6.5813 12.3433 5.07467 10.7277ZM10.25 7.5C9.65169 7.5 9.16667 7.01498 9.16667 6.41667C9.16667 5.81836 9.65169 5.33333 10.25 5.33333C10.8483 5.33333 11.3333 5.81836 11.3333 6.41667C11.3333 7.01498 10.8483 7.5 10.25 7.5ZM5.75 7.5C5.15169 7.5 4.66667 7.01498 4.66667 6.41667C4.66667 5.81836 5.15169 5.33333 5.75 5.33333C6.34831 5.33333 6.83333 5.81836 6.83333 6.41667C6.83333 7.01498 6.34831 7.5 5.75 7.5Z" fill="#686868"/>
</svg>
