<svg width="18" height="15" viewBox="0 0 18 15" fill="none" xmlns="http://www.w3.org/2000/svg">
<path d="M11.8464 0C12.7216 0 13.1737 0.0873111 13.6445 0.339077C14.0807 0.57239 14.4276 0.919251 14.6609 1.35551C14.8991 1.80082 14.9901 2.22947 14.9992 3.01535C15.633 3.05605 16.0366 3.16666 16.4527 3.38916C16.95 3.65516 17.3448 4.04998 17.6108 4.54735C17.8997 5.08756 18 5.60673 18 6.63437V11.3656C18 12.3933 17.8997 12.9124 17.6108 13.4527C17.3448 13.95 16.95 14.3448 16.4527 14.6108C15.9124 14.8997 15.3933 15 14.3656 15H3.63437C2.60673 15 2.08756 14.8997 1.54735 14.6108C1.04998 14.3448 0.65516 13.95 0.389164 13.4527C0.100256 12.9124 0 12.3933 0 11.3656V3H0.00150007L0.00158501 2.95897C0.0144056 2.20873 0.106678 1.79006 0.339077 1.35551C0.57239 0.919251 0.919251 0.57239 1.35551 0.339077C1.82627 0.0873111 2.2784 0 3.15364 0H11.8464ZM14.3656 4.5H1.5V11.3656C1.5 12.1668 1.55508 12.4521 1.71188 12.7453C1.83808 12.9812 2.01878 13.1619 2.25475 13.2881C2.54795 13.4449 2.83318 13.5 3.63437 13.5H14.3656C15.1668 13.5 15.4521 13.4449 15.7453 13.2881C15.9812 13.1619 16.1619 12.9812 16.2881 12.7453C16.4449 12.4521 16.5 12.1668 16.5 11.3656V6.63437C16.5 5.83318 16.4449 5.54795 16.2881 5.25475C16.1619 5.01878 15.9812 4.83808 15.7453 4.71188C15.4521 4.55508 15.1668 4.5 14.3656 4.5ZM13.5 8.25C13.9142 8.25 14.25 8.58579 14.25 9C14.25 9.41421 13.9142 9.75 13.5 9.75H12C11.5858 9.75 11.25 9.41421 11.25 9C11.25 8.58579 11.5858 8.25 12 8.25H13.5ZM11.8464 1.5H3.15364C2.50485 1.5 2.28665 1.54214 2.06291 1.6618C1.88805 1.75531 1.75531 1.88805 1.6618 2.06291C1.55212 2.26799 1.50757 2.4684 1.5009 3H13.4991C13.4924 2.4684 13.4479 2.26799 13.3382 2.06291C13.2447 1.88805 13.1119 1.75531 12.9371 1.6618C12.7133 1.54214 12.4951 1.5 11.8464 1.5Z" fill="#6C639E"/>
</svg>
