<svg width="168" height="146" viewBox="0 0 168 146" fill="none" xmlns="http://www.w3.org/2000/svg">
<g filter="url(#filter0_d_376_5873)">
<path d="M43.8596 84.0329C57.4477 84.3006 69.2229 86.3568 77.9125 89.9794C78.0608 90.0408 78.2179 90.0715 78.3734 90.0715C78.6098 90.0715 78.845 90.0013 79.0468 89.8645C79.3825 89.6374 79.5839 89.2556 79.5839 88.8469L79.5886 23.1152C79.5886 22.6135 79.2862 22.1625 78.8256 21.9772L44.3305 8.08678C43.9582 7.93669 43.5359 7.98327 43.2039 8.21118C42.8719 8.43934 42.6731 8.81884 42.6731 9.22479V82.8085C42.6731 83.4756 43.2007 84.0198 43.8596 84.0329Z" fill="#8E95C7"/>
<path d="M142.685 19.7608C142.379 19.5299 141.982 19.4591 141.616 19.5697L129.416 23.2608C128.903 23.4159 128.552 23.8928 128.552 24.434V87.933C128.552 87.933 128.606 88.9348 127.564 88.9348C126.37 88.9348 125.586 88.9348 125.586 88.9348C115.744 88.9348 97.4543 89.9685 85.5377 96.8926L83.1726 98.263L80.8077 96.8926C68.8909 89.9688 50.6012 88.9348 40.7591 88.9348C40.7591 88.9348 38.7436 88.9348 38.2352 88.9348C37.7646 88.9348 37.7935 88.3629 37.7935 88.3629V24.434C37.7935 23.8928 37.4423 23.4159 36.9299 23.2608L24.7297 19.5697C24.3631 19.4591 23.9667 19.5299 23.6601 19.7608C23.3535 19.9918 23.1729 20.3559 23.1729 20.7427V97.568C23.1729 97.9135 23.3174 98.2431 23.5703 98.4756C23.8234 98.7075 24.1613 98.8211 24.5013 98.7868C28.1274 98.427 33.7963 97.9984 40.2101 97.9984C54.2969 97.9984 65.6177 100.08 72.9538 104.02C74.0316 104.593 80.2804 108 83.1731 108C86.0658 108 92.3144 104.593 93.3919 104.02C100.728 100.08 112.049 97.9984 126.136 97.9984C132.549 97.9984 138.219 98.427 141.844 98.7868C142.185 98.8211 142.523 98.7075 142.776 98.4756C143.029 98.2431 143.173 97.9137 143.173 97.568V20.7427C143.173 20.3559 142.992 19.9918 142.685 19.7608Z" fill="#8E95C7"/>
<path d="M87.2981 89.8645C87.5002 90.0013 87.7353 90.0715 87.9715 90.0715C88.1273 90.0715 88.2841 90.0408 88.4326 89.9794C97.122 86.3566 108.897 84.3004 122.486 84.0329C123.145 84.0198 123.672 83.4756 123.672 82.8088V9.22483C123.672 8.81863 123.473 8.43912 123.142 8.21122C122.81 7.98356 122.387 7.93672 122.015 8.08681L87.5196 21.9772C87.0589 22.1626 86.7568 22.6136 86.7568 23.1152L86.7616 88.8469C86.7611 89.2556 86.9626 89.6374 87.2981 89.8645Z" fill="#8E95C7"/>
</g>
<path d="M10.0098 137.201C10.0098 138.048 9.79818 138.77 9.375 139.369C8.95833 139.962 8.3724 140.414 7.61719 140.727C6.86198 141.039 5.97331 141.195 4.95117 141.195C4.41081 141.195 3.89974 141.169 3.41797 141.117C2.9362 141.065 2.49349 140.99 2.08984 140.893C1.6862 140.795 1.33138 140.674 1.02539 140.531V138.939C1.51367 139.141 2.10938 139.33 2.8125 139.506C3.51562 139.675 4.2513 139.76 5.01953 139.76C5.73568 139.76 6.34115 139.665 6.83594 139.477C7.33073 139.281 7.70508 139.005 7.95898 138.646C8.2194 138.282 8.34961 137.846 8.34961 137.338C8.34961 136.85 8.24219 136.443 8.02734 136.117C7.8125 135.785 7.45443 135.486 6.95312 135.219C6.45833 134.945 5.78125 134.656 4.92188 134.35C4.31641 134.135 3.78255 133.9 3.32031 133.646C2.85807 133.386 2.4707 133.093 2.1582 132.768C1.8457 132.442 1.60807 132.064 1.44531 131.635C1.28906 131.205 1.21094 130.714 1.21094 130.16C1.21094 129.398 1.40299 128.747 1.78711 128.207C2.17773 127.66 2.71484 127.243 3.39844 126.957C4.08854 126.664 4.87956 126.518 5.77148 126.518C6.5332 126.518 7.23633 126.589 7.88086 126.732C8.5319 126.876 9.1276 127.068 9.66797 127.309L9.15039 128.734C8.63607 128.52 8.08919 128.34 7.50977 128.197C6.93685 128.054 6.3444 127.982 5.73242 127.982C5.12044 127.982 4.60286 128.074 4.17969 128.256C3.76302 128.432 3.44401 128.682 3.22266 129.008C3.0013 129.333 2.89062 129.721 2.89062 130.17C2.89062 130.671 2.99479 131.088 3.20312 131.42C3.41797 131.752 3.75651 132.048 4.21875 132.309C4.6875 132.562 5.30599 132.829 6.07422 133.109C6.91406 133.415 7.62695 133.741 8.21289 134.086C8.79883 134.424 9.24479 134.841 9.55078 135.336C9.85677 135.824 10.0098 136.446 10.0098 137.201ZM16.1426 139.867C16.4095 139.867 16.6829 139.844 16.9629 139.799C17.2428 139.753 17.4707 139.698 17.6465 139.633V140.893C17.4577 140.977 17.194 141.049 16.8555 141.107C16.5234 141.166 16.1979 141.195 15.8789 141.195C15.3125 141.195 14.7982 141.098 14.3359 140.902C13.8737 140.701 13.5026 140.362 13.2227 139.887C12.9492 139.411 12.8125 138.754 12.8125 137.914V131.566H11.2891V130.775L12.8223 130.141L13.4668 127.816H14.4434V130.297H17.5781V131.566H14.4434V137.865C14.4434 138.536 14.5964 139.037 14.9023 139.369C15.2148 139.701 15.6283 139.867 16.1426 139.867ZM28.6523 130.297V141H27.3242L27.0898 139.496H27.002C26.7806 139.867 26.4941 140.18 26.1426 140.434C25.791 140.688 25.3939 140.876 24.9512 141C24.515 141.13 24.0495 141.195 23.5547 141.195C22.7083 141.195 21.9987 141.059 21.4258 140.785C20.8529 140.512 20.4199 140.089 20.127 139.516C19.8405 138.943 19.6973 138.207 19.6973 137.309V130.297H21.3379V137.191C21.3379 138.083 21.5397 138.751 21.9434 139.193C22.347 139.63 22.9622 139.848 23.7891 139.848C24.5833 139.848 25.2148 139.698 25.6836 139.398C26.1589 139.099 26.5007 138.66 26.709 138.08C26.9173 137.494 27.0215 136.778 27.0215 135.932V130.297H28.6523ZM35.8887 141.195C34.5345 141.195 33.4603 140.733 32.666 139.809C31.8783 138.884 31.4844 137.51 31.4844 135.688C31.4844 133.845 31.888 132.455 32.6953 131.518C33.5026 130.574 34.5768 130.102 35.918 130.102C36.4844 130.102 36.9792 130.176 37.4023 130.326C37.8255 130.476 38.1901 130.678 38.4961 130.932C38.8021 131.179 39.0592 131.462 39.2676 131.781H39.3848C39.3587 131.579 39.3327 131.303 39.3066 130.951C39.2806 130.6 39.2676 130.313 39.2676 130.092V125.805H40.8887V141H39.5801L39.3359 139.477H39.2676C39.0658 139.796 38.8086 140.085 38.4961 140.346C38.1901 140.606 37.8223 140.814 37.3926 140.971C36.9694 141.12 36.4681 141.195 35.8887 141.195ZM36.1426 139.848C37.2884 139.848 38.099 139.522 38.5742 138.871C39.0495 138.22 39.2871 137.253 39.2871 135.971V135.678C39.2871 134.317 39.0592 133.272 38.6035 132.543C38.1543 131.814 37.334 131.449 36.1426 131.449C35.1465 131.449 34.401 131.833 33.9062 132.602C33.4115 133.363 33.1641 134.405 33.1641 135.727C33.1641 137.042 33.4082 138.057 33.8965 138.773C34.3913 139.49 35.14 139.848 36.1426 139.848ZM48.4473 130.102C49.3587 130.102 50.14 130.303 50.791 130.707C51.4421 131.111 51.9401 131.677 52.2852 132.406C52.6302 133.129 52.8027 133.975 52.8027 134.945V135.951H45.4102C45.4297 137.208 45.7422 138.165 46.3477 138.822C46.9531 139.48 47.806 139.809 48.9062 139.809C49.5833 139.809 50.1823 139.747 50.7031 139.623C51.224 139.499 51.7643 139.317 52.3242 139.076V140.502C51.7839 140.743 51.2467 140.919 50.7129 141.029C50.1855 141.14 49.5605 141.195 48.8379 141.195C47.8092 141.195 46.9108 140.987 46.1426 140.57C45.3809 140.147 44.7884 139.529 44.3652 138.715C43.9421 137.901 43.7305 136.905 43.7305 135.727C43.7305 134.574 43.9225 133.578 44.3066 132.738C44.6973 131.892 45.2441 131.241 45.9473 130.785C46.6569 130.329 47.4902 130.102 48.4473 130.102ZM48.4277 131.43C47.5618 131.43 46.8717 131.713 46.3574 132.279C45.8431 132.846 45.5371 133.637 45.4395 134.652H51.1035C51.097 134.014 50.9961 133.454 50.8008 132.973C50.612 132.484 50.3223 132.107 49.9316 131.84C49.541 131.566 49.0397 131.43 48.4277 131.43ZM60.625 130.102C61.8945 130.102 62.8548 130.414 63.5059 131.039C64.1569 131.658 64.4824 132.654 64.4824 134.027V141H62.8809V134.135C62.8809 133.243 62.6758 132.576 62.2656 132.133C61.862 131.69 61.2402 131.469 60.4004 131.469C59.2155 131.469 58.3822 131.804 57.9004 132.475C57.4186 133.145 57.1777 134.118 57.1777 135.395V141H55.5566V130.297H56.8652L57.1094 131.84H57.1973C57.4251 131.462 57.7148 131.146 58.0664 130.893C58.418 130.632 58.8118 130.437 59.248 130.307C59.6842 130.17 60.1432 130.102 60.625 130.102ZM71.2793 139.867C71.5462 139.867 71.8197 139.844 72.0996 139.799C72.3796 139.753 72.6074 139.698 72.7832 139.633V140.893C72.5944 140.977 72.3307 141.049 71.9922 141.107C71.6602 141.166 71.3346 141.195 71.0156 141.195C70.4492 141.195 69.9349 141.098 69.4727 140.902C69.0104 140.701 68.6393 140.362 68.3594 139.887C68.0859 139.411 67.9492 138.754 67.9492 137.914V131.566H66.4258V130.775L67.959 130.141L68.6035 127.816H69.5801V130.297H72.7148V131.566H69.5801V137.865C69.5801 138.536 69.7331 139.037 70.0391 139.369C70.3516 139.701 70.765 139.867 71.2793 139.867ZM88.3398 141H80.3906V126.723H88.3398V128.188H82.0508V132.807H87.9785V134.252H82.0508V139.535H88.3398V141ZM93.8086 135.521L90.1074 130.297H91.9629L94.7852 134.418L97.5977 130.297H99.4336L95.7324 135.521L99.6387 141H97.7832L94.7852 136.635L91.7676 141H89.9316L93.8086 135.521ZM106.016 141.195C105.052 141.195 104.202 140.997 103.467 140.6C102.731 140.202 102.158 139.597 101.748 138.783C101.338 137.969 101.133 136.944 101.133 135.707C101.133 134.411 101.348 133.354 101.777 132.533C102.214 131.706 102.812 131.094 103.574 130.697C104.336 130.3 105.202 130.102 106.172 130.102C106.706 130.102 107.22 130.157 107.715 130.268C108.216 130.372 108.626 130.505 108.945 130.668L108.457 132.025C108.132 131.895 107.754 131.778 107.324 131.674C106.901 131.57 106.504 131.518 106.133 131.518C105.391 131.518 104.772 131.677 104.277 131.996C103.789 132.315 103.421 132.784 103.174 133.402C102.933 134.021 102.812 134.783 102.812 135.688C102.812 136.553 102.93 137.292 103.164 137.904C103.405 138.516 103.76 138.985 104.229 139.311C104.704 139.63 105.296 139.789 106.006 139.789C106.572 139.789 107.083 139.73 107.539 139.613C107.995 139.49 108.408 139.346 108.779 139.184V140.629C108.421 140.811 108.021 140.951 107.578 141.049C107.142 141.146 106.621 141.195 106.016 141.195ZM112.939 125.805V130.346C112.939 130.606 112.933 130.87 112.92 131.137C112.907 131.397 112.884 131.638 112.852 131.859H112.959C113.18 131.482 113.46 131.166 113.799 130.912C114.144 130.652 114.535 130.456 114.971 130.326C115.407 130.189 115.869 130.121 116.357 130.121C117.217 130.121 117.933 130.258 118.506 130.531C119.085 130.805 119.518 131.228 119.805 131.801C120.098 132.374 120.244 133.116 120.244 134.027V141H118.643V134.135C118.643 133.243 118.438 132.576 118.027 132.133C117.624 131.69 117.002 131.469 116.162 131.469C115.368 131.469 114.733 131.622 114.258 131.928C113.789 132.227 113.451 132.67 113.242 133.256C113.04 133.842 112.939 134.558 112.939 135.404V141H111.318V125.805H112.939ZM127.588 130.121C128.864 130.121 129.811 130.408 130.43 130.98C131.048 131.553 131.357 132.468 131.357 133.725V141H130.176L129.863 139.418H129.785C129.486 139.809 129.173 140.137 128.848 140.404C128.522 140.665 128.145 140.863 127.715 141C127.292 141.13 126.771 141.195 126.152 141.195C125.501 141.195 124.922 141.081 124.414 140.854C123.913 140.626 123.516 140.281 123.223 139.818C122.936 139.356 122.793 138.77 122.793 138.061C122.793 136.993 123.216 136.173 124.062 135.6C124.909 135.027 126.198 134.714 127.93 134.662L129.775 134.584V133.93C129.775 133.005 129.577 132.357 129.18 131.986C128.783 131.615 128.223 131.43 127.5 131.43C126.94 131.43 126.406 131.511 125.898 131.674C125.391 131.837 124.909 132.029 124.453 132.25L123.955 131.02C124.437 130.772 124.99 130.561 125.615 130.385C126.24 130.209 126.898 130.121 127.588 130.121ZM129.756 135.727L128.125 135.795C126.79 135.847 125.85 136.065 125.303 136.449C124.756 136.833 124.482 137.377 124.482 138.08C124.482 138.692 124.668 139.145 125.039 139.438C125.41 139.73 125.902 139.877 126.514 139.877C127.464 139.877 128.242 139.613 128.848 139.086C129.453 138.559 129.756 137.768 129.756 136.713V135.727ZM139.766 130.102C141.035 130.102 141.995 130.414 142.646 131.039C143.298 131.658 143.623 132.654 143.623 134.027V141H142.021V134.135C142.021 133.243 141.816 132.576 141.406 132.133C141.003 131.69 140.381 131.469 139.541 131.469C138.356 131.469 137.523 131.804 137.041 132.475C136.559 133.145 136.318 134.118 136.318 135.395V141H134.697V130.297H136.006L136.25 131.84H136.338C136.566 131.462 136.855 131.146 137.207 130.893C137.559 130.632 137.952 130.437 138.389 130.307C138.825 130.17 139.284 130.102 139.766 130.102ZM149.951 145.805C148.545 145.805 147.461 145.541 146.699 145.014C145.938 144.493 145.557 143.76 145.557 142.816C145.557 142.146 145.768 141.573 146.191 141.098C146.621 140.622 147.214 140.307 147.969 140.15C147.689 140.02 147.448 139.825 147.246 139.564C147.051 139.304 146.953 139.005 146.953 138.666C146.953 138.275 147.061 137.934 147.275 137.641C147.497 137.341 147.832 137.055 148.281 136.781C147.721 136.553 147.266 136.169 146.914 135.629C146.569 135.082 146.396 134.447 146.396 133.725C146.396 132.956 146.556 132.302 146.875 131.762C147.194 131.215 147.656 130.798 148.262 130.512C148.867 130.225 149.6 130.082 150.459 130.082C150.648 130.082 150.837 130.092 151.025 130.111C151.221 130.124 151.406 130.147 151.582 130.18C151.758 130.206 151.911 130.238 152.041 130.277H155.713V131.322L153.74 131.566C153.936 131.82 154.098 132.126 154.229 132.484C154.359 132.842 154.424 133.24 154.424 133.676C154.424 134.743 154.062 135.593 153.34 136.225C152.617 136.85 151.624 137.162 150.361 137.162C150.062 137.162 149.756 137.136 149.443 137.084C149.124 137.26 148.88 137.455 148.711 137.67C148.548 137.885 148.467 138.132 148.467 138.412C148.467 138.62 148.529 138.786 148.652 138.91C148.783 139.034 148.968 139.125 149.209 139.184C149.45 139.236 149.74 139.262 150.078 139.262H151.963C153.128 139.262 154.02 139.506 154.639 139.994C155.264 140.482 155.576 141.195 155.576 142.133C155.576 143.318 155.094 144.226 154.131 144.857C153.167 145.489 151.774 145.805 149.951 145.805ZM150 144.535C150.885 144.535 151.618 144.444 152.197 144.262C152.783 144.086 153.219 143.829 153.506 143.49C153.799 143.158 153.945 142.761 153.945 142.299C153.945 141.869 153.848 141.544 153.652 141.322C153.457 141.107 153.171 140.964 152.793 140.893C152.415 140.814 151.953 140.775 151.406 140.775H149.551C149.069 140.775 148.649 140.85 148.291 141C147.933 141.15 147.656 141.371 147.461 141.664C147.272 141.957 147.178 142.322 147.178 142.758C147.178 143.337 147.422 143.777 147.91 144.076C148.398 144.382 149.095 144.535 150 144.535ZM150.42 135.98C151.195 135.98 151.777 135.785 152.168 135.395C152.559 135.004 152.754 134.434 152.754 133.686C152.754 132.885 152.555 132.286 152.158 131.889C151.761 131.485 151.175 131.283 150.4 131.283C149.658 131.283 149.085 131.492 148.682 131.908C148.285 132.318 148.086 132.921 148.086 133.715C148.086 134.444 148.288 135.004 148.691 135.395C149.095 135.785 149.671 135.98 150.42 135.98ZM161.943 130.102C162.855 130.102 163.636 130.303 164.287 130.707C164.938 131.111 165.436 131.677 165.781 132.406C166.126 133.129 166.299 133.975 166.299 134.945V135.951H158.906C158.926 137.208 159.238 138.165 159.844 138.822C160.449 139.48 161.302 139.809 162.402 139.809C163.079 139.809 163.678 139.747 164.199 139.623C164.72 139.499 165.26 139.317 165.82 139.076V140.502C165.28 140.743 164.743 140.919 164.209 141.029C163.682 141.14 163.057 141.195 162.334 141.195C161.305 141.195 160.407 140.987 159.639 140.57C158.877 140.147 158.285 139.529 157.861 138.715C157.438 137.901 157.227 136.905 157.227 135.727C157.227 134.574 157.419 133.578 157.803 132.738C158.193 131.892 158.74 131.241 159.443 130.785C160.153 130.329 160.986 130.102 161.943 130.102ZM161.924 131.43C161.058 131.43 160.368 131.713 159.854 132.279C159.339 132.846 159.033 133.637 158.936 134.652H164.6C164.593 134.014 164.492 133.454 164.297 132.973C164.108 132.484 163.818 132.107 163.428 131.84C163.037 131.566 162.536 131.43 161.924 131.43Z" fill="#232036"/>
<defs>
<filter id="filter0_d_376_5873" x="13.1729" y="0" width="140" height="120" filterUnits="userSpaceOnUse" color-interpolation-filters="sRGB">
<feFlood flood-opacity="0" result="BackgroundImageFix"/>
<feColorMatrix in="SourceAlpha" type="matrix" values="0 0 0 0 0 0 0 0 0 0 0 0 0 0 0 0 0 0 127 0" result="hardAlpha"/>
<feOffset dy="2"/>
<feGaussianBlur stdDeviation="5"/>
<feComposite in2="hardAlpha" operator="out"/>
<feColorMatrix type="matrix" values="0 0 0 0 0 0 0 0 0 0 0 0 0 0 0 0 0 0 0.1 0"/>
<feBlend mode="normal" in2="BackgroundImageFix" result="effect1_dropShadow_376_5873"/>
<feBlend mode="normal" in="SourceGraphic" in2="effect1_dropShadow_376_5873" result="shape"/>
</filter>
</defs>
</svg>
