<svg width="141" height="120" viewBox="0 0 141 120" fill="none" xmlns="http://www.w3.org/2000/svg">
<g filter="url(#filter0_d_376_5874)">
<path d="M30.8596 84.0329C44.4477 84.3006 56.2229 86.3568 64.9125 89.9794C65.0609 90.0408 65.2179 90.0715 65.3734 90.0715C65.6098 90.0715 65.845 90.0013 66.0468 89.8645C66.3825 89.6374 66.5838 89.2556 66.5838 88.8469L66.5886 23.1152C66.5886 22.6135 66.2862 22.1625 65.8256 21.9772L31.3305 8.08678C30.9582 7.93669 30.5359 7.98327 30.2039 8.21118C29.8719 8.43934 29.6731 8.81884 29.6731 9.22479V82.8085C29.6731 83.4756 30.2007 84.0198 30.8596 84.0329Z" fill="#8E95C7"/>
<path d="M129.685 19.7608C129.379 19.5299 128.982 19.4591 128.616 19.5697L116.416 23.2608C115.903 23.4159 115.552 23.8928 115.552 24.434V87.933C115.552 87.933 115.606 88.9348 114.564 88.9348C113.37 88.9348 112.586 88.9348 112.586 88.9348C102.744 88.9348 84.4543 89.9685 72.5377 96.8926L70.1726 98.263L67.8077 96.8926C55.8909 89.9688 37.6012 88.9348 27.7591 88.9348C27.7591 88.9348 25.7436 88.9348 25.2352 88.9348C24.7646 88.9348 24.7935 88.3629 24.7935 88.3629V24.434C24.7935 23.8928 24.4423 23.4159 23.9299 23.2608L11.7297 19.5697C11.3631 19.4591 10.9667 19.5299 10.6601 19.7608C10.3535 19.9918 10.1729 20.3559 10.1729 20.7427V97.568C10.1729 97.9135 10.3174 98.2431 10.5703 98.4756C10.8234 98.7075 11.1613 98.8211 11.5013 98.7868C15.1274 98.427 20.7963 97.9984 27.2101 97.9984C41.2969 97.9984 52.6177 100.08 59.9538 104.02C61.0316 104.593 67.2804 108 70.1731 108C73.0658 108 79.3144 104.593 80.3919 104.02C87.7282 100.08 99.049 97.9984 113.136 97.9984C119.549 97.9984 125.219 98.427 128.844 98.7868C129.185 98.8211 129.523 98.7075 129.776 98.4756C130.029 98.2431 130.173 97.9137 130.173 97.568V20.7427C130.173 20.3559 129.992 19.9918 129.685 19.7608Z" fill="#8E95C7"/>
<path d="M74.2981 89.8645C74.5002 90.0013 74.7353 90.0715 74.9715 90.0715C75.1273 90.0715 75.2841 90.0408 75.4326 89.9794C84.122 86.3566 95.8974 84.3004 109.486 84.0329C110.145 84.0198 110.672 83.4756 110.672 82.8088V9.22483C110.672 8.81863 110.473 8.43912 110.142 8.21122C109.81 7.98356 109.387 7.93672 109.015 8.08681L74.5196 21.9772C74.0589 22.1626 73.7568 22.6136 73.7568 23.1152L73.7616 88.8469C73.7611 89.2556 73.9626 89.6374 74.2981 89.8645Z" fill="#8E95C7"/>
</g>
<defs>
<filter id="filter0_d_376_5874" x="0.172852" y="0" width="140" height="120" filterUnits="userSpaceOnUse" color-interpolation-filters="sRGB">
<feFlood flood-opacity="0" result="BackgroundImageFix"/>
<feColorMatrix in="SourceAlpha" type="matrix" values="0 0 0 0 0 0 0 0 0 0 0 0 0 0 0 0 0 0 127 0" result="hardAlpha"/>
<feOffset dy="2"/>
<feGaussianBlur stdDeviation="5"/>
<feComposite in2="hardAlpha" operator="out"/>
<feColorMatrix type="matrix" values="0 0 0 0 0 0 0 0 0 0 0 0 0 0 0 0 0 0 0.1 0"/>
<feBlend mode="normal" in2="BackgroundImageFix" result="effect1_dropShadow_376_5874"/>
<feBlend mode="normal" in="SourceGraphic" in2="effect1_dropShadow_376_5874" result="shape"/>
</filter>
</defs>
</svg>
